<mxfile host="app.diagrams.net" modified="2021-08-17T23:39:00.889Z" agent="5.0 (Macintosh; Intel Mac OS X 10_15_7) AppleWebKit/537.36 (KHTML, like Gecko) Chrome/92.0.4515.131 Safari/537.36" etag="ynSdzVSAoDv_GYvM4U5M" version="14.9.6" type="github" pages="17">
  <diagram id="24E1dRkqsLulDQxmK-Ek" name="Page-3">
    <mxGraphModel dx="1186" dy="1841" grid="1" gridSize="10" guides="1" tooltips="1" connect="1" arrows="1" fold="1" page="1" pageScale="1" pageWidth="850" pageHeight="1100" math="0" shadow="0">
      <root>
        <mxCell id="HTwEEvRbIkjddWU1QSHY-0" />
        <mxCell id="HTwEEvRbIkjddWU1QSHY-1" parent="HTwEEvRbIkjddWU1QSHY-0" />
        <mxCell id="HTwEEvRbIkjddWU1QSHY-2" value="Request 1&lt;br&gt;Oklahoma" style="image;html=1;image=img/lib/clip_art/telecommunication/iPhone_128x128.png;labelPosition=center;verticalLabelPosition=top;align=center;verticalAlign=bottom;" parent="HTwEEvRbIkjddWU1QSHY-1" vertex="1">
          <mxGeometry x="40" y="-1040" width="160" height="200" as="geometry" />
        </mxCell>
        <mxCell id="HTwEEvRbIkjddWU1QSHY-3" value="" style="shape=image;imageAspect=0;aspect=fixed;verticalLabelPosition=bottom;verticalAlign=top;image=https://upload.wikimedia.org/wikipedia/commons/thumb/8/8a/Fastly_logo.svg/1200px-Fastly_logo.svg.png;" parent="HTwEEvRbIkjddWU1QSHY-1" vertex="1">
          <mxGeometry x="579.9999999999999" y="-1020" width="219.29" height="88.13" as="geometry" />
        </mxCell>
        <mxCell id="HTwEEvRbIkjddWU1QSHY-11" value="First Client Requests Podcast Show 1 in Oklahoma" style="endArrow=classic;html=1;entryX=0;entryY=0;entryDx=0;entryDy=0;exitX=1.013;exitY=0.125;exitDx=0;exitDy=0;fillColor=#f8cecc;strokeColor=#b85450;shape=flexArrow;exitPerimeter=0;" parent="HTwEEvRbIkjddWU1QSHY-1" source="HTwEEvRbIkjddWU1QSHY-2" target="HTwEEvRbIkjddWU1QSHY-3" edge="1">
          <mxGeometry width="50" height="50" relative="1" as="geometry">
            <mxPoint x="550" y="330" as="sourcePoint" />
            <mxPoint x="600" y="280" as="targetPoint" />
          </mxGeometry>
        </mxCell>
        <mxCell id="HTwEEvRbIkjddWU1QSHY-15" value="" style="shape=image;html=1;verticalAlign=top;verticalLabelPosition=bottom;labelBackgroundColor=#ffffff;imageAspect=0;aspect=fixed;image=https://cdn0.iconfinder.com/data/icons/customicondesign-state-png/128/Oklahoma-Flag.png" parent="HTwEEvRbIkjddWU1QSHY-1" vertex="1">
          <mxGeometry x="330" y="-1004" width="128" height="128" as="geometry" />
        </mxCell>
      </root>
    </mxGraphModel>
  </diagram>
  <diagram id="65dsRHFygX5bJgFl_Crs" name="Page-4">
    <mxGraphModel dx="1186" dy="1841" grid="1" gridSize="10" guides="1" tooltips="1" connect="1" arrows="1" fold="1" page="1" pageScale="1" pageWidth="850" pageHeight="1100" math="0" shadow="0">
      <root>
        <mxCell id="to6AluDyOJK6Q8qXa_EJ-0" />
        <mxCell id="to6AluDyOJK6Q8qXa_EJ-1" parent="to6AluDyOJK6Q8qXa_EJ-0" />
        <mxCell id="to6AluDyOJK6Q8qXa_EJ-2" value="" style="image;html=1;image=img/lib/clip_art/telecommunication/iPhone_128x128.png;labelPosition=center;verticalLabelPosition=top;align=center;verticalAlign=bottom;" parent="to6AluDyOJK6Q8qXa_EJ-1" vertex="1">
          <mxGeometry x="40" y="-1040" width="160" height="200" as="geometry" />
        </mxCell>
        <mxCell id="to6AluDyOJK6Q8qXa_EJ-3" value="" style="shape=image;imageAspect=0;aspect=fixed;verticalLabelPosition=bottom;verticalAlign=top;image=https://upload.wikimedia.org/wikipedia/commons/thumb/8/8a/Fastly_logo.svg/1200px-Fastly_logo.svg.png;" parent="to6AluDyOJK6Q8qXa_EJ-1" vertex="1">
          <mxGeometry x="579.9999999999999" y="-1020" width="219.29" height="88.13" as="geometry" />
        </mxCell>
        <mxCell id="to6AluDyOJK6Q8qXa_EJ-4" value="" style="shape=image;html=1;verticalAlign=top;verticalLabelPosition=bottom;labelBackgroundColor=#ffffff;imageAspect=0;aspect=fixed;image=https://cdn2.iconfinder.com/data/icons/25-free-ui-icons/40/microphone_retro-128.png;fontFamily=Helvetica;fontSize=12;fontColor=#000000;align=center;strokeColor=#000000;fillColor=#ffffff;" parent="to6AluDyOJK6Q8qXa_EJ-1" vertex="1">
          <mxGeometry x="51.75" y="-660" width="136.5" height="136.5" as="geometry" />
        </mxCell>
        <mxCell id="to6AluDyOJK6Q8qXa_EJ-7" value="There&#39;s no Show 1 so the request gets sent to origin" style="endArrow=none;startArrow=classic;html=1;exitX=0.5;exitY=0;exitDx=0;exitDy=0;fillColor=#f8cecc;strokeColor=#b85450;shape=flexArrow;endFill=0;" parent="to6AluDyOJK6Q8qXa_EJ-1" source="to6AluDyOJK6Q8qXa_EJ-4" target="to6AluDyOJK6Q8qXa_EJ-8" edge="1">
          <mxGeometry width="50" height="50" relative="1" as="geometry">
            <mxPoint x="580" y="320" as="sourcePoint" />
            <mxPoint x="385.90909090909076" y="560" as="targetPoint" />
            <Array as="points" />
          </mxGeometry>
        </mxCell>
        <mxCell id="to6AluDyOJK6Q8qXa_EJ-8" value="CDN POP&lt;br&gt;TEXAS" style="shape=image;html=1;verticalAlign=top;verticalLabelPosition=bottom;labelBackgroundColor=#ffffff;imageAspect=0;aspect=fixed;image=https://cdn0.iconfinder.com/data/icons/customicondesign-state-png/128/Texas-Flag.png;fontFamily=Helvetica;fontSize=12;fontColor=#000000;align=center;strokeColor=#000000;fillColor=#ffffff;" parent="to6AluDyOJK6Q8qXa_EJ-1" vertex="1">
          <mxGeometry x="500" y="-760" width="80" height="80" as="geometry" />
        </mxCell>
        <mxCell id="to6AluDyOJK6Q8qXa_EJ-9" value="Fastly Routes the first and &lt;br&gt;second requests&lt;br&gt;&amp;nbsp;to the same CDN POP&lt;br&gt;&amp;nbsp;to see if it has a fresh&lt;br&gt;&amp;nbsp;version of Show 1" style="endArrow=classic;html=1;entryX=1;entryY=0;entryDx=0;entryDy=0;exitX=0;exitY=1;exitDx=0;exitDy=0;fillColor=#f8cecc;strokeColor=#b85450;shape=flexArrow;" parent="to6AluDyOJK6Q8qXa_EJ-1" source="to6AluDyOJK6Q8qXa_EJ-3" target="to6AluDyOJK6Q8qXa_EJ-8" edge="1">
          <mxGeometry width="50" height="50" relative="1" as="geometry">
            <mxPoint x="540" y="550" as="sourcePoint" />
            <mxPoint x="590" y="500" as="targetPoint" />
          </mxGeometry>
        </mxCell>
        <mxCell id="to6AluDyOJK6Q8qXa_EJ-11" value="" style="endArrow=classic;html=1;entryX=0;entryY=0;entryDx=0;entryDy=0;exitX=1.013;exitY=0.125;exitDx=0;exitDy=0;fillColor=#f8cecc;strokeColor=#b85450;shape=flexArrow;exitPerimeter=0;" parent="to6AluDyOJK6Q8qXa_EJ-1" source="to6AluDyOJK6Q8qXa_EJ-2" target="to6AluDyOJK6Q8qXa_EJ-3" edge="1">
          <mxGeometry width="50" height="50" relative="1" as="geometry">
            <mxPoint x="550" y="330" as="sourcePoint" />
            <mxPoint x="600" y="280" as="targetPoint" />
          </mxGeometry>
        </mxCell>
        <mxCell id="to6AluDyOJK6Q8qXa_EJ-15" value="" style="shape=image;html=1;verticalAlign=top;verticalLabelPosition=bottom;labelBackgroundColor=#ffffff;imageAspect=0;aspect=fixed;image=https://cdn0.iconfinder.com/data/icons/customicondesign-state-png/128/Oklahoma-Flag.png" parent="to6AluDyOJK6Q8qXa_EJ-1" vertex="1">
          <mxGeometry x="330" y="-1004" width="128" height="128" as="geometry" />
        </mxCell>
      </root>
    </mxGraphModel>
  </diagram>
  <diagram id="9P3rP4u9-kQkeHV-rRFG" name="Page-5">
    <mxGraphModel dx="1186" dy="1841" grid="1" gridSize="10" guides="1" tooltips="1" connect="1" arrows="1" fold="1" page="1" pageScale="1" pageWidth="850" pageHeight="1100" math="0" shadow="0">
      <root>
        <mxCell id="-JkuhKd_b4ETnx8zUXtX-0" />
        <mxCell id="-JkuhKd_b4ETnx8zUXtX-1" parent="-JkuhKd_b4ETnx8zUXtX-0" />
        <mxCell id="-JkuhKd_b4ETnx8zUXtX-2" value="" style="image;html=1;image=img/lib/clip_art/telecommunication/iPhone_128x128.png;labelPosition=center;verticalLabelPosition=top;align=center;verticalAlign=bottom;" parent="-JkuhKd_b4ETnx8zUXtX-1" vertex="1">
          <mxGeometry x="40" y="-1040" width="160" height="200" as="geometry" />
        </mxCell>
        <mxCell id="-JkuhKd_b4ETnx8zUXtX-3" value="" style="shape=image;imageAspect=0;aspect=fixed;verticalLabelPosition=bottom;verticalAlign=top;image=https://upload.wikimedia.org/wikipedia/commons/thumb/8/8a/Fastly_logo.svg/1200px-Fastly_logo.svg.png;" parent="-JkuhKd_b4ETnx8zUXtX-1" vertex="1">
          <mxGeometry x="579.9999999999999" y="-1020" width="219.29" height="88.13" as="geometry" />
        </mxCell>
        <mxCell id="-JkuhKd_b4ETnx8zUXtX-4" value="" style="shape=image;html=1;verticalAlign=top;verticalLabelPosition=bottom;labelBackgroundColor=#ffffff;imageAspect=0;aspect=fixed;image=https://cdn2.iconfinder.com/data/icons/25-free-ui-icons/40/microphone_retro-128.png;fontFamily=Helvetica;fontSize=12;fontColor=#000000;align=center;strokeColor=#000000;fillColor=#ffffff;" parent="-JkuhKd_b4ETnx8zUXtX-1" vertex="1">
          <mxGeometry x="51.75" y="-660" width="136.5" height="136.5" as="geometry" />
        </mxCell>
        <mxCell id="-JkuhKd_b4ETnx8zUXtX-6" value="" style="shape=image;imageAspect=0;aspect=fixed;verticalLabelPosition=bottom;verticalAlign=top;image=https://static.javatpoint.com/tutorial/memcached/images/memcached-tutorial.png;" parent="-JkuhKd_b4ETnx8zUXtX-1" vertex="1">
          <mxGeometry x="690" y="-730" width="125" height="125" as="geometry" />
        </mxCell>
        <mxCell id="-JkuhKd_b4ETnx8zUXtX-8" value="CDN POP&lt;br&gt;TEXAS" style="shape=image;html=1;verticalAlign=top;verticalLabelPosition=bottom;labelBackgroundColor=#ffffff;imageAspect=0;aspect=fixed;image=https://cdn0.iconfinder.com/data/icons/customicondesign-state-png/128/Texas-Flag.png;fontFamily=Helvetica;fontSize=12;fontColor=#000000;align=center;strokeColor=#000000;fillColor=#ffffff;" parent="-JkuhKd_b4ETnx8zUXtX-1" vertex="1">
          <mxGeometry x="500" y="-760" width="80" height="80" as="geometry" />
        </mxCell>
        <mxCell id="-JkuhKd_b4ETnx8zUXtX-9" value="" style="endArrow=classic;html=1;entryX=1;entryY=0;entryDx=0;entryDy=0;exitX=0;exitY=1;exitDx=0;exitDy=0;fillColor=#f8cecc;strokeColor=#b85450;shape=flexArrow;" parent="-JkuhKd_b4ETnx8zUXtX-1" source="-JkuhKd_b4ETnx8zUXtX-3" target="-JkuhKd_b4ETnx8zUXtX-8" edge="1">
          <mxGeometry width="50" height="50" relative="1" as="geometry">
            <mxPoint x="540" y="550" as="sourcePoint" />
            <mxPoint x="590" y="500" as="targetPoint" />
          </mxGeometry>
        </mxCell>
        <mxCell id="-JkuhKd_b4ETnx8zUXtX-11" value="" style="endArrow=classic;html=1;entryX=0;entryY=0;entryDx=0;entryDy=0;exitX=1.013;exitY=0.125;exitDx=0;exitDy=0;fillColor=#f8cecc;strokeColor=#b85450;shape=flexArrow;exitPerimeter=0;" parent="-JkuhKd_b4ETnx8zUXtX-1" source="-JkuhKd_b4ETnx8zUXtX-2" target="-JkuhKd_b4ETnx8zUXtX-3" edge="1">
          <mxGeometry width="50" height="50" relative="1" as="geometry">
            <mxPoint x="550" y="330" as="sourcePoint" />
            <mxPoint x="600" y="280" as="targetPoint" />
          </mxGeometry>
        </mxCell>
        <mxCell id="-JkuhKd_b4ETnx8zUXtX-13" value="The API checks if it has &lt;br&gt;Show 1 and updates cache &lt;br&gt;with the db response" style="endArrow=classic;startArrow=classic;html=1;fillColor=#f8cecc;strokeColor=#b85450;shape=flexArrow;exitX=1;exitY=0.25;exitDx=0;exitDy=0;" parent="-JkuhKd_b4ETnx8zUXtX-1" source="-JkuhKd_b4ETnx8zUXtX-4" edge="1">
          <mxGeometry width="50" height="50" relative="1" as="geometry">
            <mxPoint x="530" y="550" as="sourcePoint" />
            <mxPoint x="690" y="-641.9354838709678" as="targetPoint" />
            <Array as="points">
              <mxPoint x="630" y="-610" />
            </Array>
          </mxGeometry>
        </mxCell>
        <mxCell id="-JkuhKd_b4ETnx8zUXtX-15" value="" style="shape=image;html=1;verticalAlign=top;verticalLabelPosition=bottom;labelBackgroundColor=#ffffff;imageAspect=0;aspect=fixed;image=https://cdn0.iconfinder.com/data/icons/customicondesign-state-png/128/Oklahoma-Flag.png" parent="-JkuhKd_b4ETnx8zUXtX-1" vertex="1">
          <mxGeometry x="330" y="-1004" width="128" height="128" as="geometry" />
        </mxCell>
        <mxCell id="78g96LkEz0IAmCetC53G-0" value="" style="endArrow=none;startArrow=classic;html=1;exitX=0.5;exitY=0;exitDx=0;exitDy=0;fillColor=#f8cecc;strokeColor=#b85450;shape=flexArrow;endFill=0;" parent="-JkuhKd_b4ETnx8zUXtX-1" edge="1">
          <mxGeometry width="50" height="50" relative="1" as="geometry">
            <mxPoint x="120" y="-660" as="sourcePoint" />
            <mxPoint x="500" y="-714.2857142857142" as="targetPoint" />
            <Array as="points" />
          </mxGeometry>
        </mxCell>
      </root>
    </mxGraphModel>
  </diagram>
  <diagram id="MqDY7b6FpgLl8rgvxffc" name="Page-6">
    <mxGraphModel dx="1186" dy="1841" grid="1" gridSize="10" guides="1" tooltips="1" connect="1" arrows="1" fold="1" page="1" pageScale="1" pageWidth="850" pageHeight="1100" math="0" shadow="0">
      <root>
        <mxCell id="nOxLdjmfhQCN0bSjHRJ1-0" />
        <mxCell id="nOxLdjmfhQCN0bSjHRJ1-1" parent="nOxLdjmfhQCN0bSjHRJ1-0" />
        <mxCell id="Vv4MAona1lm5qlVPzmVd-0" value="" style="image;html=1;image=img/lib/clip_art/telecommunication/iPhone_128x128.png;labelPosition=center;verticalLabelPosition=top;align=center;verticalAlign=bottom;" parent="nOxLdjmfhQCN0bSjHRJ1-1" vertex="1">
          <mxGeometry x="40" y="-1040" width="160" height="200" as="geometry" />
        </mxCell>
        <mxCell id="Vv4MAona1lm5qlVPzmVd-1" value="" style="shape=image;imageAspect=0;aspect=fixed;verticalLabelPosition=bottom;verticalAlign=top;image=https://upload.wikimedia.org/wikipedia/commons/thumb/8/8a/Fastly_logo.svg/1200px-Fastly_logo.svg.png;" parent="nOxLdjmfhQCN0bSjHRJ1-1" vertex="1">
          <mxGeometry x="579.9999999999999" y="-1020" width="219.29" height="88.13" as="geometry" />
        </mxCell>
        <mxCell id="Vv4MAona1lm5qlVPzmVd-2" value="" style="shape=image;html=1;verticalAlign=top;verticalLabelPosition=bottom;labelBackgroundColor=#ffffff;imageAspect=0;aspect=fixed;image=https://cdn2.iconfinder.com/data/icons/25-free-ui-icons/40/microphone_retro-128.png;fontFamily=Helvetica;fontSize=12;fontColor=#000000;align=center;strokeColor=#000000;fillColor=#ffffff;" parent="nOxLdjmfhQCN0bSjHRJ1-1" vertex="1">
          <mxGeometry x="51.75" y="-660" width="136.5" height="136.5" as="geometry" />
        </mxCell>
        <mxCell id="Vv4MAona1lm5qlVPzmVd-3" value="" style="shape=image;imageAspect=0;aspect=fixed;verticalLabelPosition=bottom;verticalAlign=top;image=https://www.zdnet.com/a/hub/i/r/2018/04/19/092cbf81-acac-4f3a-91a1-5a26abc1721f/thumbnail/770x578/5d78c50199e6a9242367b37892be8057/postgresql-logo.png;" parent="nOxLdjmfhQCN0bSjHRJ1-1" vertex="1">
          <mxGeometry x="652.62" y="-570" width="146.67" height="110" as="geometry" />
        </mxCell>
        <mxCell id="Vv4MAona1lm5qlVPzmVd-4" value="" style="shape=image;imageAspect=0;aspect=fixed;verticalLabelPosition=bottom;verticalAlign=top;image=https://static.javatpoint.com/tutorial/memcached/images/memcached-tutorial.png;" parent="nOxLdjmfhQCN0bSjHRJ1-1" vertex="1">
          <mxGeometry x="690" y="-730" width="125" height="125" as="geometry" />
        </mxCell>
        <mxCell id="Vv4MAona1lm5qlVPzmVd-6" value="CDN POP&lt;br&gt;TEXAS" style="shape=image;html=1;verticalAlign=top;verticalLabelPosition=bottom;labelBackgroundColor=#ffffff;imageAspect=0;aspect=fixed;image=https://cdn0.iconfinder.com/data/icons/customicondesign-state-png/128/Texas-Flag.png;fontFamily=Helvetica;fontSize=12;fontColor=#000000;align=center;strokeColor=#000000;fillColor=#ffffff;" parent="nOxLdjmfhQCN0bSjHRJ1-1" vertex="1">
          <mxGeometry x="500" y="-760" width="80" height="80" as="geometry" />
        </mxCell>
        <mxCell id="Vv4MAona1lm5qlVPzmVd-7" value="" style="endArrow=classic;html=1;entryX=1;entryY=0;entryDx=0;entryDy=0;exitX=0;exitY=1;exitDx=0;exitDy=0;fillColor=#f8cecc;strokeColor=#b85450;shape=flexArrow;" parent="nOxLdjmfhQCN0bSjHRJ1-1" source="Vv4MAona1lm5qlVPzmVd-1" target="Vv4MAona1lm5qlVPzmVd-6" edge="1">
          <mxGeometry width="50" height="50" relative="1" as="geometry">
            <mxPoint x="540" y="550" as="sourcePoint" />
            <mxPoint x="590" y="500" as="targetPoint" />
          </mxGeometry>
        </mxCell>
        <mxCell id="Vv4MAona1lm5qlVPzmVd-9" value="" style="endArrow=classic;html=1;entryX=0;entryY=0;entryDx=0;entryDy=0;exitX=1.013;exitY=0.125;exitDx=0;exitDy=0;fillColor=#f8cecc;strokeColor=#b85450;shape=flexArrow;exitPerimeter=0;" parent="nOxLdjmfhQCN0bSjHRJ1-1" source="Vv4MAona1lm5qlVPzmVd-0" target="Vv4MAona1lm5qlVPzmVd-1" edge="1">
          <mxGeometry width="50" height="50" relative="1" as="geometry">
            <mxPoint x="550" y="330" as="sourcePoint" />
            <mxPoint x="600" y="280" as="targetPoint" />
          </mxGeometry>
        </mxCell>
        <mxCell id="Vv4MAona1lm5qlVPzmVd-10" value="For the First request After not finding Show 1 in &lt;br&gt;memcache the api queries the database and updates memcache" style="endArrow=classic;html=1;exitX=-0.02;exitY=0.398;exitDx=0;exitDy=0;exitPerimeter=0;fillColor=#f8cecc;strokeColor=#b85450;entryX=1;entryY=1;entryDx=0;entryDy=0;shape=flexArrow;" parent="nOxLdjmfhQCN0bSjHRJ1-1" source="Vv4MAona1lm5qlVPzmVd-3" target="Vv4MAona1lm5qlVPzmVd-2" edge="1">
          <mxGeometry width="50" height="50" relative="1" as="geometry">
            <mxPoint x="570" y="780" as="sourcePoint" />
            <mxPoint x="620" y="730" as="targetPoint" />
            <Array as="points" />
          </mxGeometry>
        </mxCell>
        <mxCell id="Vv4MAona1lm5qlVPzmVd-11" value="" style="endArrow=classic;startArrow=classic;html=1;fillColor=#f8cecc;strokeColor=#b85450;shape=flexArrow;exitX=1;exitY=0.25;exitDx=0;exitDy=0;" parent="nOxLdjmfhQCN0bSjHRJ1-1" source="Vv4MAona1lm5qlVPzmVd-2" target="Vv4MAona1lm5qlVPzmVd-12" edge="1">
          <mxGeometry width="50" height="50" relative="1" as="geometry">
            <mxPoint x="530" y="550" as="sourcePoint" />
            <mxPoint x="470" y="760" as="targetPoint" />
            <Array as="points">
              <mxPoint x="630" y="-610" />
            </Array>
          </mxGeometry>
        </mxCell>
        <mxCell id="Vv4MAona1lm5qlVPzmVd-12" value="" style="shape=image;verticalLabelPosition=bottom;verticalAlign=top;imageAspect=0;aspect=fixed;image=data:image/svg+xml,PHN2ZyB4bWxucz0iaHR0cDovL3d3dy53My5vcmcvMjAwMC9zdmciIHZlcnNpb249IjEiIHZpZXdCb3g9IjAgMCA0OCA0OCIgZW5hYmxlLWJhY2tncm91bmQ9Im5ldyAwIDAgNDggNDgiPiYjeGE7ICAgIDxwYXRoIGZpbGw9IiNENTAwMDAiIGQ9Ik0yNCw2QzE0LjEsNiw2LDE0LjEsNiwyNHM4LjEsMTgsMTgsMThzMTgtOC4xLDE4LTE4UzMzLjksNiwyNCw2eiBNMjQsMTBjMy4xLDAsNiwxLjEsOC40LDIuOEwxMi44LDMyLjQgQzExLjEsMzAsMTAsMjcuMSwxMCwyNEMxMCwxNi4zLDE2LjMsMTAsMjQsMTB6IE0yNCwzOGMtMy4xLDAtNi0xLjEtOC40LTIuOGwxOS42LTE5LjZDMzYuOSwxOCwzOCwyMC45LDM4LDI0QzM4LDMxLjcsMzEuNywzOCwyNCwzOCB6Ii8+JiN4YTs8L3N2Zz4=;labelBackgroundColor=#FF9999;" parent="nOxLdjmfhQCN0bSjHRJ1-1" vertex="1">
          <mxGeometry x="690" y="-740" width="128" height="128" as="geometry" />
        </mxCell>
        <mxCell id="Vv4MAona1lm5qlVPzmVd-13" value="" style="shape=image;html=1;verticalAlign=top;verticalLabelPosition=bottom;labelBackgroundColor=#ffffff;imageAspect=0;aspect=fixed;image=https://cdn0.iconfinder.com/data/icons/customicondesign-state-png/128/Oklahoma-Flag.png" parent="nOxLdjmfhQCN0bSjHRJ1-1" vertex="1">
          <mxGeometry x="330" y="-1004" width="128" height="128" as="geometry" />
        </mxCell>
        <mxCell id="HNODjEo6drMVWmUWyflo-0" value="" style="endArrow=none;startArrow=classic;html=1;exitX=0.5;exitY=0;exitDx=0;exitDy=0;fillColor=#f8cecc;strokeColor=#b85450;shape=flexArrow;endFill=0;" edge="1" parent="nOxLdjmfhQCN0bSjHRJ1-1">
          <mxGeometry width="50" height="50" relative="1" as="geometry">
            <mxPoint x="120" y="-660" as="sourcePoint" />
            <mxPoint x="500" y="-714.2857142857142" as="targetPoint" />
            <Array as="points" />
          </mxGeometry>
        </mxCell>
      </root>
    </mxGraphModel>
  </diagram>
  <diagram id="ka8PZBvrucHUT3SrTgN0" name="Page-7">
    <mxGraphModel dx="1186" dy="1841" grid="1" gridSize="10" guides="1" tooltips="1" connect="1" arrows="1" fold="1" page="1" pageScale="1" pageWidth="850" pageHeight="1100" math="0" shadow="0">
      <root>
        <mxCell id="pwGJYxuFFPoEa5yn2uvT-0" />
        <mxCell id="pwGJYxuFFPoEa5yn2uvT-1" parent="pwGJYxuFFPoEa5yn2uvT-0" />
        <mxCell id="pwGJYxuFFPoEa5yn2uvT-2" value="" style="image;html=1;image=img/lib/clip_art/telecommunication/iPhone_128x128.png;labelPosition=center;verticalLabelPosition=top;align=center;verticalAlign=bottom;" parent="pwGJYxuFFPoEa5yn2uvT-1" vertex="1">
          <mxGeometry x="40" y="-1040" width="160" height="200" as="geometry" />
        </mxCell>
        <mxCell id="pwGJYxuFFPoEa5yn2uvT-3" value="" style="shape=image;imageAspect=0;aspect=fixed;verticalLabelPosition=bottom;verticalAlign=top;image=https://upload.wikimedia.org/wikipedia/commons/thumb/8/8a/Fastly_logo.svg/1200px-Fastly_logo.svg.png;" parent="pwGJYxuFFPoEa5yn2uvT-1" vertex="1">
          <mxGeometry x="579.9999999999999" y="-1020" width="219.29" height="88.13" as="geometry" />
        </mxCell>
        <mxCell id="pwGJYxuFFPoEa5yn2uvT-4" value="" style="shape=image;html=1;verticalAlign=top;verticalLabelPosition=bottom;labelBackgroundColor=#ffffff;imageAspect=0;aspect=fixed;image=https://cdn2.iconfinder.com/data/icons/25-free-ui-icons/40/microphone_retro-128.png;fontFamily=Helvetica;fontSize=12;fontColor=#000000;align=center;strokeColor=#000000;fillColor=#ffffff;" parent="pwGJYxuFFPoEa5yn2uvT-1" vertex="1">
          <mxGeometry x="51.75" y="-660" width="136.5" height="136.5" as="geometry" />
        </mxCell>
        <mxCell id="pwGJYxuFFPoEa5yn2uvT-5" value="" style="shape=image;imageAspect=0;aspect=fixed;verticalLabelPosition=bottom;verticalAlign=top;image=https://www.zdnet.com/a/hub/i/r/2018/04/19/092cbf81-acac-4f3a-91a1-5a26abc1721f/thumbnail/770x578/5d78c50199e6a9242367b37892be8057/postgresql-logo.png;" parent="pwGJYxuFFPoEa5yn2uvT-1" vertex="1">
          <mxGeometry x="652.62" y="-570" width="146.67" height="110" as="geometry" />
        </mxCell>
        <mxCell id="pwGJYxuFFPoEa5yn2uvT-6" value="" style="shape=image;imageAspect=0;aspect=fixed;verticalLabelPosition=bottom;verticalAlign=top;image=https://static.javatpoint.com/tutorial/memcached/images/memcached-tutorial.png;" parent="pwGJYxuFFPoEa5yn2uvT-1" vertex="1">
          <mxGeometry x="690" y="-730" width="125" height="125" as="geometry" />
        </mxCell>
        <mxCell id="pwGJYxuFFPoEa5yn2uvT-7" value="The POP now has a fresh &lt;br&gt;version of Show 1 for the next request&lt;br&gt;with a TTL in the cache-control&amp;nbsp;&lt;br&gt;headers and last-modified header." style="endArrow=classic;startArrow=none;html=1;exitX=0.5;exitY=0;exitDx=0;exitDy=0;fillColor=#f8cecc;strokeColor=#b85450;shape=flexArrow;startFill=0;" parent="pwGJYxuFFPoEa5yn2uvT-1" source="pwGJYxuFFPoEa5yn2uvT-4" target="pwGJYxuFFPoEa5yn2uvT-8" edge="1">
          <mxGeometry width="50" height="50" relative="1" as="geometry">
            <mxPoint x="580" y="320" as="sourcePoint" />
            <mxPoint x="385.90909090909076" y="560" as="targetPoint" />
            <Array as="points" />
          </mxGeometry>
        </mxCell>
        <mxCell id="pwGJYxuFFPoEa5yn2uvT-8" value="CDN POP&lt;br&gt;TEXAS" style="shape=image;html=1;verticalAlign=top;verticalLabelPosition=bottom;labelBackgroundColor=#ffffff;imageAspect=0;aspect=fixed;image=https://cdn0.iconfinder.com/data/icons/customicondesign-state-png/128/Texas-Flag.png;fontFamily=Helvetica;fontSize=12;fontColor=#000000;align=center;strokeColor=#000000;fillColor=#ffffff;" parent="pwGJYxuFFPoEa5yn2uvT-1" vertex="1">
          <mxGeometry x="500" y="-760" width="80" height="80" as="geometry" />
        </mxCell>
        <mxCell id="pwGJYxuFFPoEa5yn2uvT-9" value="" style="endArrow=classic;html=1;entryX=1;entryY=0;entryDx=0;entryDy=0;exitX=0;exitY=1;exitDx=0;exitDy=0;fillColor=#f8cecc;strokeColor=#b85450;shape=flexArrow;" parent="pwGJYxuFFPoEa5yn2uvT-1" source="pwGJYxuFFPoEa5yn2uvT-3" target="pwGJYxuFFPoEa5yn2uvT-8" edge="1">
          <mxGeometry width="50" height="50" relative="1" as="geometry">
            <mxPoint x="540" y="550" as="sourcePoint" />
            <mxPoint x="590" y="500" as="targetPoint" />
          </mxGeometry>
        </mxCell>
        <mxCell id="pwGJYxuFFPoEa5yn2uvT-10" value="The Client is served &lt;br&gt;Show 1 from Origin" style="shape=flexArrow;endArrow=classic;html=1;exitX=-0.012;exitY=0.338;exitDx=0;exitDy=0;entryX=0.888;entryY=1.013;entryDx=0;entryDy=0;fillColor=#f8cecc;strokeColor=#b85450;exitPerimeter=0;entryPerimeter=0;" parent="pwGJYxuFFPoEa5yn2uvT-1" source="pwGJYxuFFPoEa5yn2uvT-8" target="pwGJYxuFFPoEa5yn2uvT-2" edge="1">
          <mxGeometry x="0.0459" width="50" height="50" relative="1" as="geometry">
            <mxPoint x="550" y="460" as="sourcePoint" />
            <mxPoint x="70" y="120" as="targetPoint" />
            <Array as="points" />
            <mxPoint as="offset" />
          </mxGeometry>
        </mxCell>
        <mxCell id="pwGJYxuFFPoEa5yn2uvT-11" value="" style="endArrow=classic;html=1;entryX=0;entryY=0;entryDx=0;entryDy=0;exitX=1.013;exitY=0.125;exitDx=0;exitDy=0;fillColor=#f8cecc;strokeColor=#b85450;shape=flexArrow;exitPerimeter=0;" parent="pwGJYxuFFPoEa5yn2uvT-1" source="pwGJYxuFFPoEa5yn2uvT-2" target="pwGJYxuFFPoEa5yn2uvT-3" edge="1">
          <mxGeometry width="50" height="50" relative="1" as="geometry">
            <mxPoint x="550" y="330" as="sourcePoint" />
            <mxPoint x="600" y="280" as="targetPoint" />
          </mxGeometry>
        </mxCell>
        <mxCell id="pwGJYxuFFPoEa5yn2uvT-12" value="" style="endArrow=classic;html=1;exitX=-0.02;exitY=0.398;exitDx=0;exitDy=0;exitPerimeter=0;fillColor=#f8cecc;strokeColor=#b85450;entryX=1;entryY=1;entryDx=0;entryDy=0;shape=flexArrow;" parent="pwGJYxuFFPoEa5yn2uvT-1" source="pwGJYxuFFPoEa5yn2uvT-5" target="pwGJYxuFFPoEa5yn2uvT-4" edge="1">
          <mxGeometry width="50" height="50" relative="1" as="geometry">
            <mxPoint x="570" y="780" as="sourcePoint" />
            <mxPoint x="620" y="730" as="targetPoint" />
            <Array as="points" />
          </mxGeometry>
        </mxCell>
        <mxCell id="pwGJYxuFFPoEa5yn2uvT-13" value="" style="endArrow=classic;startArrow=classic;html=1;fillColor=#f8cecc;strokeColor=#b85450;shape=flexArrow;exitX=1;exitY=0.25;exitDx=0;exitDy=0;" parent="pwGJYxuFFPoEa5yn2uvT-1" source="pwGJYxuFFPoEa5yn2uvT-4" target="pwGJYxuFFPoEa5yn2uvT-14" edge="1">
          <mxGeometry width="50" height="50" relative="1" as="geometry">
            <mxPoint x="530" y="550" as="sourcePoint" />
            <mxPoint x="470" y="760" as="targetPoint" />
            <Array as="points">
              <mxPoint x="630" y="-610" />
            </Array>
          </mxGeometry>
        </mxCell>
        <mxCell id="pwGJYxuFFPoEa5yn2uvT-14" value="" style="shape=image;verticalLabelPosition=bottom;verticalAlign=top;imageAspect=0;aspect=fixed;image=data:image/svg+xml,PHN2ZyB4bWxucz0iaHR0cDovL3d3dy53My5vcmcvMjAwMC9zdmciIHZlcnNpb249IjEiIHZpZXdCb3g9IjAgMCA0OCA0OCIgZW5hYmxlLWJhY2tncm91bmQ9Im5ldyAwIDAgNDggNDgiPiYjeGE7ICAgIDxwYXRoIGZpbGw9IiNENTAwMDAiIGQ9Ik0yNCw2QzE0LjEsNiw2LDE0LjEsNiwyNHM4LjEsMTgsMTgsMThzMTgtOC4xLDE4LTE4UzMzLjksNiwyNCw2eiBNMjQsMTBjMy4xLDAsNiwxLjEsOC40LDIuOEwxMi44LDMyLjQgQzExLjEsMzAsMTAsMjcuMSwxMCwyNEMxMCwxNi4zLDE2LjMsMTAsMjQsMTB6IE0yNCwzOGMtMy4xLDAtNi0xLjEtOC40LTIuOGwxOS42LTE5LjZDMzYuOSwxOCwzOCwyMC45LDM4LDI0QzM4LDMxLjcsMzEuNywzOCwyNCwzOCB6Ii8+JiN4YTs8L3N2Zz4=;labelBackgroundColor=#FF9999;" parent="pwGJYxuFFPoEa5yn2uvT-1" vertex="1">
          <mxGeometry x="690" y="-740" width="128" height="128" as="geometry" />
        </mxCell>
        <mxCell id="pwGJYxuFFPoEa5yn2uvT-15" value="" style="shape=image;html=1;verticalAlign=top;verticalLabelPosition=bottom;labelBackgroundColor=#ffffff;imageAspect=0;aspect=fixed;image=https://cdn0.iconfinder.com/data/icons/customicondesign-state-png/128/Oklahoma-Flag.png" parent="pwGJYxuFFPoEa5yn2uvT-1" vertex="1">
          <mxGeometry x="330" y="-1004" width="128" height="128" as="geometry" />
        </mxCell>
      </root>
    </mxGraphModel>
  </diagram>
  <diagram id="ZN2FTXXSisiIaWIfvTe5" name="Page-9">
    <mxGraphModel dx="1186" dy="1841" grid="1" gridSize="10" guides="1" tooltips="1" connect="1" arrows="1" fold="1" page="1" pageScale="1" pageWidth="850" pageHeight="1100" math="0" shadow="0">
      <root>
        <mxCell id="HnWsbGuGJy7ydUbKZSCY-0" />
        <mxCell id="HnWsbGuGJy7ydUbKZSCY-1" parent="HnWsbGuGJy7ydUbKZSCY-0" />
        <mxCell id="HnWsbGuGJy7ydUbKZSCY-2" value="" style="shape=image;imageAspect=0;aspect=fixed;verticalLabelPosition=bottom;verticalAlign=top;image=https://upload.wikimedia.org/wikipedia/commons/thumb/8/8a/Fastly_logo.svg/1200px-Fastly_logo.svg.png;" vertex="1" parent="HnWsbGuGJy7ydUbKZSCY-1">
          <mxGeometry x="579.9999999999999" y="-980" width="219.29" height="88.13" as="geometry" />
        </mxCell>
        <mxCell id="HnWsbGuGJy7ydUbKZSCY-5" value="Second Client requests Podcast Show 1 in Arkansas" style="endArrow=classic;html=1;exitX=1;exitY=0.5;exitDx=0;exitDy=0;fillColor=#fff2cc;strokeColor=#d6b656;shape=flexArrow;exitPerimeter=0;" edge="1" parent="HnWsbGuGJy7ydUbKZSCY-1" source="HnWsbGuGJy7ydUbKZSCY-7" target="HnWsbGuGJy7ydUbKZSCY-2">
          <mxGeometry width="50" height="50" relative="1" as="geometry">
            <mxPoint x="140" y="-935.9299999999998" as="sourcePoint" />
            <mxPoint x="600" y="280" as="targetPoint" />
            <Array as="points" />
          </mxGeometry>
        </mxCell>
        <mxCell id="HnWsbGuGJy7ydUbKZSCY-7" value="Request 2&lt;br&gt;Arkansas" style="aspect=fixed;pointerEvents=1;shadow=0;dashed=0;html=1;strokeColor=none;labelPosition=center;verticalLabelPosition=bottom;verticalAlign=top;align=center;fillColor=#00188D;shape=mxgraph.mscae.enterprise.android_phone;labelBackgroundColor=#FF9999;" vertex="1" parent="HnWsbGuGJy7ydUbKZSCY-1">
          <mxGeometry x="50" y="-1010" width="120" height="200" as="geometry" />
        </mxCell>
        <mxCell id="HnWsbGuGJy7ydUbKZSCY-10" value="" style="shape=image;html=1;verticalAlign=top;verticalLabelPosition=bottom;labelBackgroundColor=#ffffff;imageAspect=0;aspect=fixed;image=https://cdn0.iconfinder.com/data/icons/customicondesign-state-png/128/Arkansas-Flag.png" vertex="1" parent="HnWsbGuGJy7ydUbKZSCY-1">
          <mxGeometry x="297" y="-1060" width="128" height="128" as="geometry" />
        </mxCell>
      </root>
    </mxGraphModel>
  </diagram>
  <diagram id="m3Wpyq1iNJZu00NNb7-w" name="Page-10">
    <mxGraphModel dx="1186" dy="1841" grid="1" gridSize="10" guides="1" tooltips="1" connect="1" arrows="1" fold="1" page="1" pageScale="1" pageWidth="850" pageHeight="1100" math="0" shadow="0">
      <root>
        <mxCell id="5_vhTTEVgsrwI-1foePT-0" />
        <mxCell id="5_vhTTEVgsrwI-1foePT-1" parent="5_vhTTEVgsrwI-1foePT-0" />
        <mxCell id="5_vhTTEVgsrwI-1foePT-2" value="" style="shape=image;imageAspect=0;aspect=fixed;verticalLabelPosition=bottom;verticalAlign=top;image=https://upload.wikimedia.org/wikipedia/commons/thumb/8/8a/Fastly_logo.svg/1200px-Fastly_logo.svg.png;" vertex="1" parent="5_vhTTEVgsrwI-1foePT-1">
          <mxGeometry x="579.9999999999999" y="-980" width="219.29" height="88.13" as="geometry" />
        </mxCell>
        <mxCell id="5_vhTTEVgsrwI-1foePT-3" value="CDN POP&lt;br&gt;TEXAS" style="shape=image;html=1;verticalAlign=top;verticalLabelPosition=bottom;labelBackgroundColor=#ffffff;imageAspect=0;aspect=fixed;image=https://cdn0.iconfinder.com/data/icons/customicondesign-state-png/128/Texas-Flag.png;fontFamily=Helvetica;fontSize=12;fontColor=#000000;align=center;strokeColor=#000000;fillColor=#ffffff;" vertex="1" parent="5_vhTTEVgsrwI-1foePT-1">
          <mxGeometry x="410" y="-730" width="80" height="80" as="geometry" />
        </mxCell>
        <mxCell id="5_vhTTEVgsrwI-1foePT-4" value="The Client is served Show 1 from the CDN POP&lt;br&gt;since the TTL has not elapsed" style="shape=flexArrow;endArrow=classic;html=1;exitX=0;exitY=0;exitDx=0;exitDy=0;fillColor=#fff2cc;strokeColor=#d6b656;entryX=0.99;entryY=0.99;entryDx=0;entryDy=0;entryPerimeter=0;" edge="1" parent="5_vhTTEVgsrwI-1foePT-1" source="5_vhTTEVgsrwI-1foePT-3" target="5_vhTTEVgsrwI-1foePT-7">
          <mxGeometry width="50" height="50" relative="1" as="geometry">
            <mxPoint x="550" y="480" as="sourcePoint" />
            <mxPoint x="140" y="-908.8693735772301" as="targetPoint" />
          </mxGeometry>
        </mxCell>
        <mxCell id="5_vhTTEVgsrwI-1foePT-5" value="" style="endArrow=classic;html=1;exitX=1;exitY=0.5;exitDx=0;exitDy=0;fillColor=#fff2cc;strokeColor=#d6b656;shape=flexArrow;exitPerimeter=0;" edge="1" parent="5_vhTTEVgsrwI-1foePT-1" source="5_vhTTEVgsrwI-1foePT-7" target="5_vhTTEVgsrwI-1foePT-2">
          <mxGeometry width="50" height="50" relative="1" as="geometry">
            <mxPoint x="140" y="-935.9299999999998" as="sourcePoint" />
            <mxPoint x="600" y="280" as="targetPoint" />
            <Array as="points" />
          </mxGeometry>
        </mxCell>
        <mxCell id="5_vhTTEVgsrwI-1foePT-6" value="" style="endArrow=classic;html=1;entryX=1;entryY=0;entryDx=0;entryDy=0;fillColor=#fff2cc;strokeColor=#d6b656;shape=flexArrow;" edge="1" parent="5_vhTTEVgsrwI-1foePT-1" source="5_vhTTEVgsrwI-1foePT-2" target="5_vhTTEVgsrwI-1foePT-3">
          <mxGeometry width="50" height="50" relative="1" as="geometry">
            <mxPoint x="627.4300000000001" y="-879.9999999999999" as="sourcePoint" />
            <mxPoint x="450.00427124746216" y="-706.4142712474621" as="targetPoint" />
          </mxGeometry>
        </mxCell>
        <mxCell id="5_vhTTEVgsrwI-1foePT-7" value="" style="aspect=fixed;pointerEvents=1;shadow=0;dashed=0;html=1;strokeColor=none;labelPosition=center;verticalLabelPosition=bottom;verticalAlign=top;align=center;fillColor=#00188D;shape=mxgraph.mscae.enterprise.android_phone;labelBackgroundColor=#FF9999;" vertex="1" parent="5_vhTTEVgsrwI-1foePT-1">
          <mxGeometry x="50" y="-1010" width="120" height="200" as="geometry" />
        </mxCell>
        <mxCell id="5_vhTTEVgsrwI-1foePT-10" value="" style="shape=image;html=1;verticalAlign=top;verticalLabelPosition=bottom;labelBackgroundColor=#ffffff;imageAspect=0;aspect=fixed;image=https://cdn0.iconfinder.com/data/icons/customicondesign-state-png/128/Arkansas-Flag.png" vertex="1" parent="5_vhTTEVgsrwI-1foePT-1">
          <mxGeometry x="297" y="-1060" width="128" height="128" as="geometry" />
        </mxCell>
        <mxCell id="bM6Out3msawOf53kGUK4-0" value="" style="shape=image;html=1;verticalAlign=top;verticalLabelPosition=bottom;labelBackgroundColor=#ffffff;imageAspect=0;aspect=fixed;image=https://cdn2.iconfinder.com/data/icons/25-free-ui-icons/40/microphone_retro-128.png" vertex="1" parent="5_vhTTEVgsrwI-1foePT-1">
          <mxGeometry x="80" y="-730" width="128" height="128" as="geometry" />
        </mxCell>
        <mxCell id="bM6Out3msawOf53kGUK4-1" value="" style="shape=image;verticalLabelPosition=bottom;verticalAlign=top;imageAspect=0;aspect=fixed;image=data:image/svg+xml,PHN2ZyB4bWxucz0iaHR0cDovL3d3dy53My5vcmcvMjAwMC9zdmciIHZlcnNpb249IjEiIHZpZXdCb3g9IjAgMCA0OCA0OCIgZW5hYmxlLWJhY2tncm91bmQ9Im5ldyAwIDAgNDggNDgiPiYjeGE7ICAgIDxwYXRoIGZpbGw9IiNENTAwMDAiIGQ9Ik0yNCw2QzE0LjEsNiw2LDE0LjEsNiwyNHM4LjEsMTgsMTgsMThzMTgtOC4xLDE4LTE4UzMzLjksNiwyNCw2eiBNMjQsMTBjMy4xLDAsNiwxLjEsOC40LDIuOEwxMi44LDMyLjQgQzExLjEsMzAsMTAsMjcuMSwxMCwyNEMxMCwxNi4zLDE2LjMsMTAsMjQsMTB6IE0yNCwzOGMtMy4xLDAtNi0xLjEtOC40LTIuOGwxOS42LTE5LjZDMzYuOSwxOCwzOCwyMC45LDM4LDI0QzM4LDMxLjcsMzEuNywzOCwyNCwzOCB6Ii8+JiN4YTs8L3N2Zz4=" vertex="1" parent="5_vhTTEVgsrwI-1foePT-1">
          <mxGeometry x="60" y="-750" width="168" height="168" as="geometry" />
        </mxCell>
      </root>
    </mxGraphModel>
  </diagram>
  <diagram id="VyWLWOcwJOAN_M_fTt8u" name="Page-8">
    <mxGraphModel dx="1186" dy="2941" grid="1" gridSize="10" guides="1" tooltips="1" connect="1" arrows="1" fold="1" page="1" pageScale="1" pageWidth="850" pageHeight="1100" math="0" shadow="0">
      <root>
        <mxCell id="vxM5E7zM8nhImkZkrKFT-0" />
        <mxCell id="vxM5E7zM8nhImkZkrKFT-1" parent="vxM5E7zM8nhImkZkrKFT-0" />
        <mxCell id="vxM5E7zM8nhImkZkrKFT-2" value="" style="shape=image;imageAspect=0;aspect=fixed;verticalLabelPosition=bottom;verticalAlign=top;image=https://upload.wikimedia.org/wikipedia/commons/thumb/8/8a/Fastly_logo.svg/1200px-Fastly_logo.svg.png;" vertex="1" parent="vxM5E7zM8nhImkZkrKFT-1">
          <mxGeometry x="609.9999999999999" y="-1110.07" width="219.29" height="88.13" as="geometry" />
        </mxCell>
        <mxCell id="vxM5E7zM8nhImkZkrKFT-6" value="Third Client requests Podcast Show 1 in Llagos&lt;br&gt;" style="endArrow=classic;html=1;fillColor=#dae8fc;strokeColor=#6c8ebf;shape=flexArrow;" edge="1" parent="vxM5E7zM8nhImkZkrKFT-1" source="vxM5E7zM8nhImkZkrKFT-13" target="vxM5E7zM8nhImkZkrKFT-2">
          <mxGeometry x="-0.0084" width="50" height="50" relative="1" as="geometry">
            <mxPoint x="140" y="-980" as="sourcePoint" />
            <mxPoint x="740" y="390" as="targetPoint" />
            <mxPoint as="offset" />
          </mxGeometry>
        </mxCell>
        <mxCell id="vxM5E7zM8nhImkZkrKFT-13" value="" style="pointerEvents=1;shadow=0;dashed=0;html=1;strokeColor=none;fillColor=#505050;labelPosition=center;verticalLabelPosition=bottom;verticalAlign=top;outlineConnect=0;align=center;shape=mxgraph.office.devices.cell_phone_windows_phone_standalone;labelBackgroundColor=#FF9999;" vertex="1" parent="vxM5E7zM8nhImkZkrKFT-1">
          <mxGeometry x="30" y="-1141" width="104" height="150" as="geometry" />
        </mxCell>
        <mxCell id="vxM5E7zM8nhImkZkrKFT-15" value="" style="shape=image;html=1;verticalAlign=top;verticalLabelPosition=bottom;labelBackgroundColor=#ffffff;imageAspect=0;aspect=fixed;image=https://cdn3.iconfinder.com/data/icons/142-mini-country-flags-16x16px/32/flag-nigeria2x.png" vertex="1" parent="vxM5E7zM8nhImkZkrKFT-1">
          <mxGeometry x="350" y="-1190" width="100" height="100" as="geometry" />
        </mxCell>
      </root>
    </mxGraphModel>
  </diagram>
  <diagram id="5eh9IHloW2sEcfl0SI7z" name="Page-11">
    <mxGraphModel dx="1186" dy="2941" grid="1" gridSize="10" guides="1" tooltips="1" connect="1" arrows="1" fold="1" page="1" pageScale="1" pageWidth="850" pageHeight="1100" math="0" shadow="0">
      <root>
        <mxCell id="8HlKm_ycB5RNYgiEztQH-0" />
        <mxCell id="8HlKm_ycB5RNYgiEztQH-1" parent="8HlKm_ycB5RNYgiEztQH-0" />
        <mxCell id="3yh2DF_IZyJEO7PhI-vu-0" value="" style="shape=image;imageAspect=0;aspect=fixed;verticalLabelPosition=bottom;verticalAlign=top;image=https://upload.wikimedia.org/wikipedia/commons/thumb/8/8a/Fastly_logo.svg/1200px-Fastly_logo.svg.png;" vertex="1" parent="8HlKm_ycB5RNYgiEztQH-1">
          <mxGeometry x="609.9999999999999" y="-1110.07" width="219.29" height="88.13" as="geometry" />
        </mxCell>
        <mxCell id="3yh2DF_IZyJEO7PhI-vu-4" value="" style="endArrow=classic;html=1;fillColor=#dae8fc;strokeColor=#6c8ebf;shape=flexArrow;" edge="1" parent="8HlKm_ycB5RNYgiEztQH-1" source="3yh2DF_IZyJEO7PhI-vu-11" target="3yh2DF_IZyJEO7PhI-vu-0">
          <mxGeometry x="-0.0084" width="50" height="50" relative="1" as="geometry">
            <mxPoint x="140" y="-980" as="sourcePoint" />
            <mxPoint x="740" y="390" as="targetPoint" />
            <mxPoint as="offset" />
          </mxGeometry>
        </mxCell>
        <mxCell id="3yh2DF_IZyJEO7PhI-vu-6" value="CDN POP&lt;br&gt;Madagascar" style="shape=image;html=1;verticalAlign=top;verticalLabelPosition=bottom;labelBackgroundColor=#ffffff;imageAspect=0;aspect=fixed;image=https://cdn1.iconfinder.com/data/icons/ensign-11/512/158_Ensign_Flag_Nation_madagascar-128.png;fontFamily=Helvetica;fontSize=12;fontColor=#000000;align=center;strokeColor=#000000;fillColor=#ffffff;" vertex="1" parent="8HlKm_ycB5RNYgiEztQH-1">
          <mxGeometry x="360" y="-940" width="120" height="120" as="geometry" />
        </mxCell>
        <mxCell id="3yh2DF_IZyJEO7PhI-vu-7" value="Fastly Routes the Third and fourth&lt;br&gt;request to a different&lt;br&gt;CDN POP that is close&lt;br&gt;to them" style="endArrow=classic;html=1;exitX=0.922;exitY=0.987;exitDx=0;exitDy=0;exitPerimeter=0;fillColor=#dae8fc;strokeColor=#6c8ebf;shape=flexArrow;entryX=0.95;entryY=0.325;entryDx=0;entryDy=0;entryPerimeter=0;" edge="1" parent="8HlKm_ycB5RNYgiEztQH-1" source="3yh2DF_IZyJEO7PhI-vu-0" target="3yh2DF_IZyJEO7PhI-vu-6">
          <mxGeometry width="50" height="50" relative="1" as="geometry">
            <mxPoint x="540" y="550" as="sourcePoint" />
            <mxPoint x="590" y="500" as="targetPoint" />
          </mxGeometry>
        </mxCell>
        <mxCell id="3yh2DF_IZyJEO7PhI-vu-11" value="" style="pointerEvents=1;shadow=0;dashed=0;html=1;strokeColor=none;fillColor=#505050;labelPosition=center;verticalLabelPosition=bottom;verticalAlign=top;outlineConnect=0;align=center;shape=mxgraph.office.devices.cell_phone_windows_phone_standalone;labelBackgroundColor=#FF9999;" vertex="1" parent="8HlKm_ycB5RNYgiEztQH-1">
          <mxGeometry x="30" y="-1141" width="104" height="150" as="geometry" />
        </mxCell>
        <mxCell id="3yh2DF_IZyJEO7PhI-vu-13" value="" style="shape=image;html=1;verticalAlign=top;verticalLabelPosition=bottom;labelBackgroundColor=#ffffff;imageAspect=0;aspect=fixed;image=https://cdn3.iconfinder.com/data/icons/142-mini-country-flags-16x16px/32/flag-nigeria2x.png" vertex="1" parent="8HlKm_ycB5RNYgiEztQH-1">
          <mxGeometry x="350" y="-1190" width="100" height="100" as="geometry" />
        </mxCell>
        <mxCell id="pSOxusk5Ko-akBDB5qAZ-0" value="CDN POP&lt;br&gt;TEXAS" style="shape=image;html=1;verticalAlign=top;verticalLabelPosition=bottom;labelBackgroundColor=#ffffff;imageAspect=0;aspect=fixed;image=https://cdn0.iconfinder.com/data/icons/customicondesign-state-png/128/Texas-Flag.png;fontFamily=Helvetica;fontSize=12;fontColor=#000000;align=center;strokeColor=#000000;fillColor=#ffffff;" vertex="1" parent="8HlKm_ycB5RNYgiEztQH-1">
          <mxGeometry x="220" y="-930" width="80" height="80" as="geometry" />
        </mxCell>
        <mxCell id="pSOxusk5Ko-akBDB5qAZ-1" value="" style="shape=image;verticalLabelPosition=bottom;verticalAlign=top;imageAspect=0;aspect=fixed;image=data:image/svg+xml,PHN2ZyB4bWxucz0iaHR0cDovL3d3dy53My5vcmcvMjAwMC9zdmciIHZlcnNpb249IjEiIHZpZXdCb3g9IjAgMCA0OCA0OCIgZW5hYmxlLWJhY2tncm91bmQ9Im5ldyAwIDAgNDggNDgiPiYjeGE7ICAgIDxwYXRoIGZpbGw9IiNENTAwMDAiIGQ9Ik0yNCw2QzE0LjEsNiw2LDE0LjEsNiwyNHM4LjEsMTgsMTgsMThzMTgtOC4xLDE4LTE4UzMzLjksNiwyNCw2eiBNMjQsMTBjMy4xLDAsNiwxLjEsOC40LDIuOEwxMi44LDMyLjQgQzExLjEsMzAsMTAsMjcuMSwxMCwyNEMxMCwxNi4zLDE2LjMsMTAsMjQsMTB6IE0yNCwzOGMtMy4xLDAtNi0xLjEtOC40LTIuOGwxOS42LTE5LjZDMzYuOSwxOCwzOCwyMC45LDM4LDI0QzM4LDMxLjcsMzEuNywzOCwyNCwzOCB6Ii8+JiN4YTs8L3N2Zz4=" vertex="1" parent="8HlKm_ycB5RNYgiEztQH-1">
          <mxGeometry x="167.5" y="-950" width="182.5" height="182.5" as="geometry" />
        </mxCell>
      </root>
    </mxGraphModel>
  </diagram>
  <diagram id="MHVa7eAYP7pG4tQWFGVf" name="Page-12">
    <mxGraphModel dx="1186" dy="2941" grid="1" gridSize="10" guides="1" tooltips="1" connect="1" arrows="1" fold="1" page="1" pageScale="1" pageWidth="850" pageHeight="1100" math="0" shadow="0">
      <root>
        <mxCell id="684cWzZm0ftLuPSwcbaa-0" />
        <mxCell id="684cWzZm0ftLuPSwcbaa-1" parent="684cWzZm0ftLuPSwcbaa-0" />
        <mxCell id="684cWzZm0ftLuPSwcbaa-2" value="" style="shape=image;imageAspect=0;aspect=fixed;verticalLabelPosition=bottom;verticalAlign=top;image=https://upload.wikimedia.org/wikipedia/commons/thumb/8/8a/Fastly_logo.svg/1200px-Fastly_logo.svg.png;" vertex="1" parent="684cWzZm0ftLuPSwcbaa-1">
          <mxGeometry x="609.9999999999999" y="-1110.07" width="219.29" height="88.13" as="geometry" />
        </mxCell>
        <mxCell id="684cWzZm0ftLuPSwcbaa-3" value="" style="shape=image;html=1;verticalAlign=top;verticalLabelPosition=bottom;labelBackgroundColor=#ffffff;imageAspect=0;aspect=fixed;image=https://cdn2.iconfinder.com/data/icons/25-free-ui-icons/40/microphone_retro-128.png;fontFamily=Helvetica;fontSize=12;fontColor=#000000;align=center;strokeColor=#000000;fillColor=#ffffff;" vertex="1" parent="684cWzZm0ftLuPSwcbaa-1">
          <mxGeometry x="40" y="-650" width="136.5" height="136.5" as="geometry" />
        </mxCell>
        <mxCell id="684cWzZm0ftLuPSwcbaa-5" value="There&#39;s no Fresh version of Show 1 &lt;br&gt;so the request gets sent to origin &lt;br&gt;but the CDN POP will have a fresh&lt;br&gt;&amp;nbsp;copy for the next close client with its own TTL in cache-control&lt;br&gt;and last-modified-since" style="endArrow=classic;startArrow=classic;html=1;exitX=0;exitY=1;exitDx=0;exitDy=0;entryX=0.75;entryY=0;entryDx=0;entryDy=0;fillColor=#dae8fc;strokeColor=#6c8ebf;shape=flexArrow;" edge="1" parent="684cWzZm0ftLuPSwcbaa-1" source="684cWzZm0ftLuPSwcbaa-8" target="684cWzZm0ftLuPSwcbaa-3">
          <mxGeometry width="50" height="50" relative="1" as="geometry">
            <mxPoint x="856.5214025245441" y="560" as="sourcePoint" />
            <mxPoint x="630" y="270" as="targetPoint" />
            <Array as="points" />
          </mxGeometry>
        </mxCell>
        <mxCell id="684cWzZm0ftLuPSwcbaa-6" value="Third Client requests Podcast Show 1 in Llagos&lt;br&gt;" style="endArrow=classic;html=1;fillColor=#dae8fc;strokeColor=#6c8ebf;shape=flexArrow;" edge="1" parent="684cWzZm0ftLuPSwcbaa-1" source="684cWzZm0ftLuPSwcbaa-13" target="684cWzZm0ftLuPSwcbaa-2">
          <mxGeometry x="-0.0084" width="50" height="50" relative="1" as="geometry">
            <mxPoint x="140" y="-980" as="sourcePoint" />
            <mxPoint x="740" y="390" as="targetPoint" />
            <mxPoint as="offset" />
          </mxGeometry>
        </mxCell>
        <mxCell id="684cWzZm0ftLuPSwcbaa-8" value="CDN POP&lt;br&gt;Madagascar" style="shape=image;html=1;verticalAlign=top;verticalLabelPosition=bottom;labelBackgroundColor=#ffffff;imageAspect=0;aspect=fixed;image=https://cdn1.iconfinder.com/data/icons/ensign-11/512/158_Ensign_Flag_Nation_madagascar-128.png;fontFamily=Helvetica;fontSize=12;fontColor=#000000;align=center;strokeColor=#000000;fillColor=#ffffff;" vertex="1" parent="684cWzZm0ftLuPSwcbaa-1">
          <mxGeometry x="360" y="-940" width="120" height="120" as="geometry" />
        </mxCell>
        <mxCell id="684cWzZm0ftLuPSwcbaa-9" value="Fastly Routes the Third and fourth&lt;br&gt;request to a different&lt;br&gt;CDN POP that is close&lt;br&gt;to them" style="endArrow=classic;html=1;exitX=0.922;exitY=0.987;exitDx=0;exitDy=0;exitPerimeter=0;fillColor=#dae8fc;strokeColor=#6c8ebf;shape=flexArrow;entryX=0.95;entryY=0.325;entryDx=0;entryDy=0;entryPerimeter=0;" edge="1" parent="684cWzZm0ftLuPSwcbaa-1" source="684cWzZm0ftLuPSwcbaa-2" target="684cWzZm0ftLuPSwcbaa-8">
          <mxGeometry width="50" height="50" relative="1" as="geometry">
            <mxPoint x="540" y="550" as="sourcePoint" />
            <mxPoint x="590" y="500" as="targetPoint" />
          </mxGeometry>
        </mxCell>
        <mxCell id="684cWzZm0ftLuPSwcbaa-13" value="" style="pointerEvents=1;shadow=0;dashed=0;html=1;strokeColor=none;fillColor=#505050;labelPosition=center;verticalLabelPosition=bottom;verticalAlign=top;outlineConnect=0;align=center;shape=mxgraph.office.devices.cell_phone_windows_phone_standalone;labelBackgroundColor=#FF9999;" vertex="1" parent="684cWzZm0ftLuPSwcbaa-1">
          <mxGeometry x="30" y="-1141" width="104" height="150" as="geometry" />
        </mxCell>
        <mxCell id="684cWzZm0ftLuPSwcbaa-15" value="" style="shape=image;html=1;verticalAlign=top;verticalLabelPosition=bottom;labelBackgroundColor=#ffffff;imageAspect=0;aspect=fixed;image=https://cdn3.iconfinder.com/data/icons/142-mini-country-flags-16x16px/32/flag-nigeria2x.png" vertex="1" parent="684cWzZm0ftLuPSwcbaa-1">
          <mxGeometry x="350" y="-1190" width="100" height="100" as="geometry" />
        </mxCell>
      </root>
    </mxGraphModel>
  </diagram>
  <diagram id="M3lnZd5Pl3eqa4HhDzX7" name="Page-13">
    <mxGraphModel dx="1186" dy="2941" grid="1" gridSize="10" guides="1" tooltips="1" connect="1" arrows="1" fold="1" page="1" pageScale="1" pageWidth="850" pageHeight="1100" math="0" shadow="0">
      <root>
        <mxCell id="Y_DgpOGIuvlljpGqcfn1-0" />
        <mxCell id="Y_DgpOGIuvlljpGqcfn1-1" parent="Y_DgpOGIuvlljpGqcfn1-0" />
        <mxCell id="ruxRNCLhquOL4VZM6oj1-0" value="" style="shape=image;imageAspect=0;aspect=fixed;verticalLabelPosition=bottom;verticalAlign=top;image=https://upload.wikimedia.org/wikipedia/commons/thumb/8/8a/Fastly_logo.svg/1200px-Fastly_logo.svg.png;" vertex="1" parent="Y_DgpOGIuvlljpGqcfn1-1">
          <mxGeometry x="609.9999999999999" y="-1110.07" width="219.29" height="88.13" as="geometry" />
        </mxCell>
        <mxCell id="ruxRNCLhquOL4VZM6oj1-1" value="" style="shape=image;html=1;verticalAlign=top;verticalLabelPosition=bottom;labelBackgroundColor=#ffffff;imageAspect=0;aspect=fixed;image=https://cdn2.iconfinder.com/data/icons/25-free-ui-icons/40/microphone_retro-128.png;fontFamily=Helvetica;fontSize=12;fontColor=#000000;align=center;strokeColor=#000000;fillColor=#ffffff;" vertex="1" parent="Y_DgpOGIuvlljpGqcfn1-1">
          <mxGeometry x="40" y="-650" width="136.5" height="136.5" as="geometry" />
        </mxCell>
        <mxCell id="ruxRNCLhquOL4VZM6oj1-2" value="" style="shape=image;imageAspect=0;aspect=fixed;verticalLabelPosition=bottom;verticalAlign=top;image=https://static.javatpoint.com/tutorial/memcached/images/memcached-tutorial.png;" vertex="1" parent="Y_DgpOGIuvlljpGqcfn1-1">
          <mxGeometry x="464.88" y="-638.5" width="125" height="125" as="geometry" />
        </mxCell>
        <mxCell id="ruxRNCLhquOL4VZM6oj1-3" value="" style="endArrow=classic;startArrow=classic;html=1;exitX=0;exitY=1;exitDx=0;exitDy=0;entryX=0.75;entryY=0;entryDx=0;entryDy=0;fillColor=#dae8fc;strokeColor=#6c8ebf;shape=flexArrow;" edge="1" parent="Y_DgpOGIuvlljpGqcfn1-1" source="ruxRNCLhquOL4VZM6oj1-6" target="ruxRNCLhquOL4VZM6oj1-1">
          <mxGeometry width="50" height="50" relative="1" as="geometry">
            <mxPoint x="856.5214025245441" y="560" as="sourcePoint" />
            <mxPoint x="630" y="270" as="targetPoint" />
            <Array as="points" />
          </mxGeometry>
        </mxCell>
        <mxCell id="ruxRNCLhquOL4VZM6oj1-4" value="" style="endArrow=classic;html=1;fillColor=#dae8fc;strokeColor=#6c8ebf;shape=flexArrow;" edge="1" parent="Y_DgpOGIuvlljpGqcfn1-1" source="ruxRNCLhquOL4VZM6oj1-11" target="ruxRNCLhquOL4VZM6oj1-0">
          <mxGeometry x="-0.0084" width="50" height="50" relative="1" as="geometry">
            <mxPoint x="140" y="-980" as="sourcePoint" />
            <mxPoint x="740" y="390" as="targetPoint" />
            <mxPoint as="offset" />
          </mxGeometry>
        </mxCell>
        <mxCell id="ruxRNCLhquOL4VZM6oj1-6" value="CDN POP&lt;br&gt;Madagascar" style="shape=image;html=1;verticalAlign=top;verticalLabelPosition=bottom;labelBackgroundColor=#ffffff;imageAspect=0;aspect=fixed;image=https://cdn1.iconfinder.com/data/icons/ensign-11/512/158_Ensign_Flag_Nation_madagascar-128.png;fontFamily=Helvetica;fontSize=12;fontColor=#000000;align=center;strokeColor=#000000;fillColor=#ffffff;" vertex="1" parent="Y_DgpOGIuvlljpGqcfn1-1">
          <mxGeometry x="360" y="-940" width="120" height="120" as="geometry" />
        </mxCell>
        <mxCell id="ruxRNCLhquOL4VZM6oj1-7" value="" style="endArrow=classic;html=1;exitX=0.922;exitY=0.987;exitDx=0;exitDy=0;exitPerimeter=0;fillColor=#dae8fc;strokeColor=#6c8ebf;shape=flexArrow;entryX=0.95;entryY=0.325;entryDx=0;entryDy=0;entryPerimeter=0;" edge="1" parent="Y_DgpOGIuvlljpGqcfn1-1" source="ruxRNCLhquOL4VZM6oj1-0" target="ruxRNCLhquOL4VZM6oj1-6">
          <mxGeometry width="50" height="50" relative="1" as="geometry">
            <mxPoint x="540" y="550" as="sourcePoint" />
            <mxPoint x="590" y="500" as="targetPoint" />
          </mxGeometry>
        </mxCell>
        <mxCell id="ruxRNCLhquOL4VZM6oj1-8" value="The API checks if it has &lt;br&gt;Show 1 and updates cache &lt;br&gt;with the db response" style="endArrow=classic;startArrow=classic;html=1;fillColor=#dae8fc;strokeColor=#6c8ebf;shape=flexArrow;entryX=0;entryY=0.25;entryDx=0;entryDy=0;" edge="1" parent="Y_DgpOGIuvlljpGqcfn1-1" target="ruxRNCLhquOL4VZM6oj1-2">
          <mxGeometry width="50" height="50" relative="1" as="geometry">
            <mxPoint x="175" y="-630" as="sourcePoint" />
            <mxPoint x="453" y="-637" as="targetPoint" />
            <Array as="points" />
          </mxGeometry>
        </mxCell>
        <mxCell id="ruxRNCLhquOL4VZM6oj1-9" value="For the Third request the API&lt;br&gt;&amp;nbsp;finds a cached response and serves that" style="endArrow=classic;startArrow=classic;html=1;entryX=0.128;entryY=0.998;entryDx=0;entryDy=0;entryPerimeter=0;fillColor=#dae8fc;strokeColor=#6c8ebf;shape=flexArrow;" edge="1" parent="Y_DgpOGIuvlljpGqcfn1-1" target="ruxRNCLhquOL4VZM6oj1-2">
          <mxGeometry width="50" height="50" relative="1" as="geometry">
            <mxPoint x="170" y="-520" as="sourcePoint" />
            <mxPoint x="370" y="770" as="targetPoint" />
            <Array as="points" />
          </mxGeometry>
        </mxCell>
        <mxCell id="ruxRNCLhquOL4VZM6oj1-10" value="The Database isn&#39;t queried for this request&#xa;" style="shape=image;imageAspect=0;aspect=fixed;verticalLabelPosition=bottom;verticalAlign=top;image=https://www.zdnet.com/a/hub/i/r/2018/04/19/092cbf81-acac-4f3a-91a1-5a26abc1721f/thumbnail/770x578/5d78c50199e6a9242367b37892be8057/postgresql-logo.png;" vertex="1" parent="Y_DgpOGIuvlljpGqcfn1-1">
          <mxGeometry x="662.5" y="-636.75" width="146.67" height="110" as="geometry" />
        </mxCell>
        <mxCell id="ruxRNCLhquOL4VZM6oj1-11" value="" style="pointerEvents=1;shadow=0;dashed=0;html=1;strokeColor=none;fillColor=#505050;labelPosition=center;verticalLabelPosition=bottom;verticalAlign=top;outlineConnect=0;align=center;shape=mxgraph.office.devices.cell_phone_windows_phone_standalone;labelBackgroundColor=#FF9999;" vertex="1" parent="Y_DgpOGIuvlljpGqcfn1-1">
          <mxGeometry x="30" y="-1141" width="104" height="150" as="geometry" />
        </mxCell>
        <mxCell id="ruxRNCLhquOL4VZM6oj1-12" value="" style="shape=image;verticalLabelPosition=bottom;verticalAlign=top;imageAspect=0;aspect=fixed;image=data:image/svg+xml,PHN2ZyB4bWxucz0iaHR0cDovL3d3dy53My5vcmcvMjAwMC9zdmciIHZlcnNpb249IjEiIHZpZXdCb3g9IjAgMCA0OCA0OCIgZW5hYmxlLWJhY2tncm91bmQ9Im5ldyAwIDAgNDggNDgiPiYjeGE7ICAgIDxwYXRoIGZpbGw9IiNENTAwMDAiIGQ9Ik0yNCw2QzE0LjEsNiw2LDE0LjEsNiwyNHM4LjEsMTgsMTgsMThzMTgtOC4xLDE4LTE4UzMzLjksNiwyNCw2eiBNMjQsMTBjMy4xLDAsNiwxLjEsOC40LDIuOEwxMi44LDMyLjQgQzExLjEsMzAsMTAsMjcuMSwxMCwyNEMxMCwxNi4zLDE2LjMsMTAsMjQsMTB6IE0yNCwzOGMtMy4xLDAtNi0xLjEtOC40LTIuOGwxOS42LTE5LjZDMzYuOSwxOCwzOCwyMC45LDM4LDI0QzM4LDMxLjcsMzEuNywzOCwyNCwzOCB6Ii8+JiN4YTs8L3N2Zz4=;labelBackgroundColor=#FF9999;" vertex="1" parent="Y_DgpOGIuvlljpGqcfn1-1">
          <mxGeometry x="662.5" y="-641.5" width="128" height="128" as="geometry" />
        </mxCell>
        <mxCell id="ruxRNCLhquOL4VZM6oj1-13" value="" style="shape=image;html=1;verticalAlign=top;verticalLabelPosition=bottom;labelBackgroundColor=#ffffff;imageAspect=0;aspect=fixed;image=https://cdn3.iconfinder.com/data/icons/142-mini-country-flags-16x16px/32/flag-nigeria2x.png" vertex="1" parent="Y_DgpOGIuvlljpGqcfn1-1">
          <mxGeometry x="350" y="-1190" width="100" height="100" as="geometry" />
        </mxCell>
      </root>
    </mxGraphModel>
  </diagram>
  <diagram id="S-L3h20HDssoGs8bQYos" name="Page-14">
    <mxGraphModel dx="1186" dy="2941" grid="1" gridSize="10" guides="1" tooltips="1" connect="1" arrows="1" fold="1" page="1" pageScale="1" pageWidth="850" pageHeight="1100" math="0" shadow="0">
      <root>
        <mxCell id="B0YiBpstM7cr6Cvw7ts--0" />
        <mxCell id="B0YiBpstM7cr6Cvw7ts--1" parent="B0YiBpstM7cr6Cvw7ts--0" />
        <mxCell id="B0YiBpstM7cr6Cvw7ts--2" value="" style="shape=image;imageAspect=0;aspect=fixed;verticalLabelPosition=bottom;verticalAlign=top;image=https://upload.wikimedia.org/wikipedia/commons/thumb/8/8a/Fastly_logo.svg/1200px-Fastly_logo.svg.png;" vertex="1" parent="B0YiBpstM7cr6Cvw7ts--1">
          <mxGeometry x="609.9999999999999" y="-1110.07" width="219.29" height="88.13" as="geometry" />
        </mxCell>
        <mxCell id="B0YiBpstM7cr6Cvw7ts--3" value="" style="shape=image;html=1;verticalAlign=top;verticalLabelPosition=bottom;labelBackgroundColor=#ffffff;imageAspect=0;aspect=fixed;image=https://cdn2.iconfinder.com/data/icons/25-free-ui-icons/40/microphone_retro-128.png;fontFamily=Helvetica;fontSize=12;fontColor=#000000;align=center;strokeColor=#000000;fillColor=#ffffff;" vertex="1" parent="B0YiBpstM7cr6Cvw7ts--1">
          <mxGeometry x="40" y="-650" width="136.5" height="136.5" as="geometry" />
        </mxCell>
        <mxCell id="B0YiBpstM7cr6Cvw7ts--4" value="" style="shape=image;imageAspect=0;aspect=fixed;verticalLabelPosition=bottom;verticalAlign=top;image=https://static.javatpoint.com/tutorial/memcached/images/memcached-tutorial.png;" vertex="1" parent="B0YiBpstM7cr6Cvw7ts--1">
          <mxGeometry x="464.88" y="-638.5" width="125" height="125" as="geometry" />
        </mxCell>
        <mxCell id="B0YiBpstM7cr6Cvw7ts--5" value="There&#39;s no Fresh version of Show 1 &lt;br&gt;so the request gets sent to origin &lt;br&gt;but the CDN POP will have a fresh&lt;br&gt;&amp;nbsp;copy for the next close client with its own TTL in cache-control&lt;br&gt;and last-modified-since" style="endArrow=classic;startArrow=classic;html=1;exitX=0;exitY=1;exitDx=0;exitDy=0;entryX=0.75;entryY=0;entryDx=0;entryDy=0;fillColor=#dae8fc;strokeColor=#6c8ebf;shape=flexArrow;" edge="1" parent="B0YiBpstM7cr6Cvw7ts--1" source="B0YiBpstM7cr6Cvw7ts--8" target="B0YiBpstM7cr6Cvw7ts--3">
          <mxGeometry width="50" height="50" relative="1" as="geometry">
            <mxPoint x="856.5214025245441" y="560" as="sourcePoint" />
            <mxPoint x="630" y="270" as="targetPoint" />
            <Array as="points" />
          </mxGeometry>
        </mxCell>
        <mxCell id="B0YiBpstM7cr6Cvw7ts--6" value="Third Client requests Podcast Show 1 in Llagos&lt;br&gt;" style="endArrow=classic;html=1;fillColor=#dae8fc;strokeColor=#6c8ebf;shape=flexArrow;" edge="1" parent="B0YiBpstM7cr6Cvw7ts--1" source="B0YiBpstM7cr6Cvw7ts--13" target="B0YiBpstM7cr6Cvw7ts--2">
          <mxGeometry x="-0.0084" width="50" height="50" relative="1" as="geometry">
            <mxPoint x="140" y="-980" as="sourcePoint" />
            <mxPoint x="740" y="390" as="targetPoint" />
            <mxPoint as="offset" />
          </mxGeometry>
        </mxCell>
        <mxCell id="B0YiBpstM7cr6Cvw7ts--7" value="Request 3 is served from origin" style="edgeStyle=orthogonalEdgeStyle;shape=flexArrow;rounded=0;orthogonalLoop=1;jettySize=auto;html=1;fillColor=#dae8fc;strokeColor=#6c8ebf;" edge="1" parent="B0YiBpstM7cr6Cvw7ts--1" source="B0YiBpstM7cr6Cvw7ts--8" target="B0YiBpstM7cr6Cvw7ts--13">
          <mxGeometry relative="1" as="geometry" />
        </mxCell>
        <mxCell id="B0YiBpstM7cr6Cvw7ts--8" value="CDN POP&lt;br&gt;Madagascar" style="shape=image;html=1;verticalAlign=top;verticalLabelPosition=bottom;labelBackgroundColor=#ffffff;imageAspect=0;aspect=fixed;image=https://cdn1.iconfinder.com/data/icons/ensign-11/512/158_Ensign_Flag_Nation_madagascar-128.png;fontFamily=Helvetica;fontSize=12;fontColor=#000000;align=center;strokeColor=#000000;fillColor=#ffffff;" vertex="1" parent="B0YiBpstM7cr6Cvw7ts--1">
          <mxGeometry x="360" y="-940" width="120" height="120" as="geometry" />
        </mxCell>
        <mxCell id="B0YiBpstM7cr6Cvw7ts--9" value="Fastly Routes the Third and fourth&lt;br&gt;request to a different&lt;br&gt;CDN POP that is close&lt;br&gt;to them" style="endArrow=classic;html=1;exitX=0.922;exitY=0.987;exitDx=0;exitDy=0;exitPerimeter=0;fillColor=#dae8fc;strokeColor=#6c8ebf;shape=flexArrow;entryX=0.95;entryY=0.325;entryDx=0;entryDy=0;entryPerimeter=0;" edge="1" parent="B0YiBpstM7cr6Cvw7ts--1" source="B0YiBpstM7cr6Cvw7ts--2" target="B0YiBpstM7cr6Cvw7ts--8">
          <mxGeometry width="50" height="50" relative="1" as="geometry">
            <mxPoint x="540" y="550" as="sourcePoint" />
            <mxPoint x="590" y="500" as="targetPoint" />
          </mxGeometry>
        </mxCell>
        <mxCell id="B0YiBpstM7cr6Cvw7ts--10" value="The API checks if it has &lt;br&gt;Show 1 and updates cache &lt;br&gt;with the db response" style="endArrow=classic;startArrow=classic;html=1;fillColor=#dae8fc;strokeColor=#6c8ebf;shape=flexArrow;entryX=0;entryY=0.25;entryDx=0;entryDy=0;" edge="1" parent="B0YiBpstM7cr6Cvw7ts--1" target="B0YiBpstM7cr6Cvw7ts--4">
          <mxGeometry width="50" height="50" relative="1" as="geometry">
            <mxPoint x="175" y="-630" as="sourcePoint" />
            <mxPoint x="453" y="-637" as="targetPoint" />
            <Array as="points" />
          </mxGeometry>
        </mxCell>
        <mxCell id="B0YiBpstM7cr6Cvw7ts--11" value="For the Third request the API&lt;br&gt;&amp;nbsp;finds a cached response and serves that" style="endArrow=classic;startArrow=classic;html=1;entryX=0.128;entryY=0.998;entryDx=0;entryDy=0;entryPerimeter=0;fillColor=#dae8fc;strokeColor=#6c8ebf;shape=flexArrow;" edge="1" parent="B0YiBpstM7cr6Cvw7ts--1" target="B0YiBpstM7cr6Cvw7ts--4">
          <mxGeometry width="50" height="50" relative="1" as="geometry">
            <mxPoint x="170" y="-520" as="sourcePoint" />
            <mxPoint x="370" y="770" as="targetPoint" />
            <Array as="points" />
          </mxGeometry>
        </mxCell>
        <mxCell id="B0YiBpstM7cr6Cvw7ts--12" value="The Database isn&#39;t queried for this request&#xa;" style="shape=image;imageAspect=0;aspect=fixed;verticalLabelPosition=bottom;verticalAlign=top;image=https://www.zdnet.com/a/hub/i/r/2018/04/19/092cbf81-acac-4f3a-91a1-5a26abc1721f/thumbnail/770x578/5d78c50199e6a9242367b37892be8057/postgresql-logo.png;" vertex="1" parent="B0YiBpstM7cr6Cvw7ts--1">
          <mxGeometry x="662.5" y="-636.75" width="146.67" height="110" as="geometry" />
        </mxCell>
        <mxCell id="B0YiBpstM7cr6Cvw7ts--13" value="" style="pointerEvents=1;shadow=0;dashed=0;html=1;strokeColor=none;fillColor=#505050;labelPosition=center;verticalLabelPosition=bottom;verticalAlign=top;outlineConnect=0;align=center;shape=mxgraph.office.devices.cell_phone_windows_phone_standalone;labelBackgroundColor=#FF9999;" vertex="1" parent="B0YiBpstM7cr6Cvw7ts--1">
          <mxGeometry x="30" y="-1141" width="104" height="150" as="geometry" />
        </mxCell>
        <mxCell id="B0YiBpstM7cr6Cvw7ts--14" value="" style="shape=image;verticalLabelPosition=bottom;verticalAlign=top;imageAspect=0;aspect=fixed;image=data:image/svg+xml,PHN2ZyB4bWxucz0iaHR0cDovL3d3dy53My5vcmcvMjAwMC9zdmciIHZlcnNpb249IjEiIHZpZXdCb3g9IjAgMCA0OCA0OCIgZW5hYmxlLWJhY2tncm91bmQ9Im5ldyAwIDAgNDggNDgiPiYjeGE7ICAgIDxwYXRoIGZpbGw9IiNENTAwMDAiIGQ9Ik0yNCw2QzE0LjEsNiw2LDE0LjEsNiwyNHM4LjEsMTgsMTgsMThzMTgtOC4xLDE4LTE4UzMzLjksNiwyNCw2eiBNMjQsMTBjMy4xLDAsNiwxLjEsOC40LDIuOEwxMi44LDMyLjQgQzExLjEsMzAsMTAsMjcuMSwxMCwyNEMxMCwxNi4zLDE2LjMsMTAsMjQsMTB6IE0yNCwzOGMtMy4xLDAtNi0xLjEtOC40LTIuOGwxOS42LTE5LjZDMzYuOSwxOCwzOCwyMC45LDM4LDI0QzM4LDMxLjcsMzEuNywzOCwyNCwzOCB6Ii8+JiN4YTs8L3N2Zz4=;labelBackgroundColor=#FF9999;" vertex="1" parent="B0YiBpstM7cr6Cvw7ts--1">
          <mxGeometry x="662.5" y="-641.5" width="128" height="128" as="geometry" />
        </mxCell>
        <mxCell id="B0YiBpstM7cr6Cvw7ts--15" value="" style="shape=image;html=1;verticalAlign=top;verticalLabelPosition=bottom;labelBackgroundColor=#ffffff;imageAspect=0;aspect=fixed;image=https://cdn3.iconfinder.com/data/icons/142-mini-country-flags-16x16px/32/flag-nigeria2x.png" vertex="1" parent="B0YiBpstM7cr6Cvw7ts--1">
          <mxGeometry x="350" y="-1190" width="100" height="100" as="geometry" />
        </mxCell>
      </root>
    </mxGraphModel>
  </diagram>
  <diagram id="pueIJ1SITlosC37luIIN" name="Page-15">
    <mxGraphModel dx="1186" dy="741" grid="1" gridSize="10" guides="1" tooltips="1" connect="1" arrows="1" fold="1" page="1" pageScale="1" pageWidth="850" pageHeight="1100" math="0" shadow="0">
      <root>
        <mxCell id="tO285gznU9Z_3y1_LZuW-0" />
        <mxCell id="tO285gznU9Z_3y1_LZuW-1" parent="tO285gznU9Z_3y1_LZuW-0" />
        <mxCell id="tO285gznU9Z_3y1_LZuW-2" style="edgeStyle=orthogonalEdgeStyle;shape=flexArrow;rounded=0;orthogonalLoop=1;jettySize=auto;html=1;fillColor=#d5e8d4;strokeColor=#82b366;" edge="1" parent="tO285gznU9Z_3y1_LZuW-1" source="tO285gznU9Z_3y1_LZuW-4" target="tO285gznU9Z_3y1_LZuW-8">
          <mxGeometry relative="1" as="geometry" />
        </mxCell>
        <mxCell id="tO285gznU9Z_3y1_LZuW-3" value="Fourth Request is&lt;br&gt;routed to the same POP" style="edgeLabel;html=1;align=center;verticalAlign=middle;resizable=0;points=[];" vertex="1" connectable="0" parent="tO285gznU9Z_3y1_LZuW-2">
          <mxGeometry x="-0.1697" y="2" relative="1" as="geometry">
            <mxPoint as="offset" />
          </mxGeometry>
        </mxCell>
        <mxCell id="tO285gznU9Z_3y1_LZuW-4" value="" style="shape=image;imageAspect=0;aspect=fixed;verticalLabelPosition=bottom;verticalAlign=top;image=https://upload.wikimedia.org/wikipedia/commons/thumb/8/8a/Fastly_logo.svg/1200px-Fastly_logo.svg.png;" vertex="1" parent="tO285gznU9Z_3y1_LZuW-1">
          <mxGeometry x="559.9999999999999" y="50" width="219.29" height="88.13" as="geometry" />
        </mxCell>
        <mxCell id="tO285gznU9Z_3y1_LZuW-8" value="CDN POP&lt;br&gt;Madagascar" style="shape=image;html=1;verticalAlign=top;verticalLabelPosition=bottom;labelBackgroundColor=#ffffff;imageAspect=0;aspect=fixed;image=https://cdn1.iconfinder.com/data/icons/ensign-11/512/158_Ensign_Flag_Nation_madagascar-128.png;fontFamily=Helvetica;fontSize=12;fontColor=#000000;align=center;strokeColor=#000000;fillColor=#ffffff;" vertex="1" parent="tO285gznU9Z_3y1_LZuW-1">
          <mxGeometry x="510" y="310" width="130" height="130" as="geometry" />
        </mxCell>
        <mxCell id="tO285gznU9Z_3y1_LZuW-9" value="Request 4&amp;nbsp;&lt;br&gt;CMS from Indonesia&lt;br&gt;" style="aspect=fixed;pointerEvents=1;shadow=0;dashed=0;html=1;strokeColor=none;labelPosition=center;verticalLabelPosition=top;verticalAlign=bottom;align=center;fillColor=#00188D;shape=mxgraph.azure.computer" vertex="1" parent="tO285gznU9Z_3y1_LZuW-1">
          <mxGeometry x="50" y="78.13" width="111.11" height="100" as="geometry" />
        </mxCell>
        <mxCell id="tO285gznU9Z_3y1_LZuW-10" value="Fourth Client&lt;br&gt;request Podcast Show 1&lt;br&gt;in Indonesia&lt;br&gt;" style="endArrow=classic;html=1;exitX=1.008;exitY=0.119;exitDx=0;exitDy=0;exitPerimeter=0;fillColor=#d5e8d4;strokeColor=#82b366;shape=flexArrow;" edge="1" parent="tO285gznU9Z_3y1_LZuW-1" source="tO285gznU9Z_3y1_LZuW-9" target="tO285gznU9Z_3y1_LZuW-4">
          <mxGeometry x="0.0061" y="-3" width="50" height="50" relative="1" as="geometry">
            <mxPoint x="800" y="-15" as="sourcePoint" />
            <mxPoint x="850" y="-65" as="targetPoint" />
            <mxPoint as="offset" />
          </mxGeometry>
        </mxCell>
        <mxCell id="tO285gznU9Z_3y1_LZuW-15" value="" style="shape=image;html=1;verticalAlign=top;verticalLabelPosition=bottom;labelBackgroundColor=#ffffff;imageAspect=0;aspect=fixed;image=https://cdn3.iconfinder.com/data/icons/142-mini-country-flags-16x16px/32/flag-indonesia2x.png" vertex="1" parent="tO285gznU9Z_3y1_LZuW-1">
          <mxGeometry x="333" y="120" width="92" height="92" as="geometry" />
        </mxCell>
      </root>
    </mxGraphModel>
  </diagram>
  <diagram id="Fm8eSlQYST6GkGBQAmx3" name="Page-16">
    <mxGraphModel dx="1186" dy="741" grid="1" gridSize="10" guides="1" tooltips="1" connect="1" arrows="1" fold="1" page="1" pageScale="1" pageWidth="850" pageHeight="1100" math="0" shadow="0">
      <root>
        <mxCell id="VL3d3sPW6T1VsYkUOx8b-0" />
        <mxCell id="VL3d3sPW6T1VsYkUOx8b-1" parent="VL3d3sPW6T1VsYkUOx8b-0" />
        <mxCell id="VL3d3sPW6T1VsYkUOx8b-2" style="edgeStyle=orthogonalEdgeStyle;shape=flexArrow;rounded=0;orthogonalLoop=1;jettySize=auto;html=1;fillColor=#d5e8d4;strokeColor=#82b366;" edge="1" parent="VL3d3sPW6T1VsYkUOx8b-1" source="VL3d3sPW6T1VsYkUOx8b-4" target="VL3d3sPW6T1VsYkUOx8b-8">
          <mxGeometry relative="1" as="geometry" />
        </mxCell>
        <mxCell id="VL3d3sPW6T1VsYkUOx8b-3" value="Fourth Request is&lt;br&gt;routed to the same POP" style="edgeLabel;html=1;align=center;verticalAlign=middle;resizable=0;points=[];" vertex="1" connectable="0" parent="VL3d3sPW6T1VsYkUOx8b-2">
          <mxGeometry x="-0.1697" y="2" relative="1" as="geometry">
            <mxPoint as="offset" />
          </mxGeometry>
        </mxCell>
        <mxCell id="VL3d3sPW6T1VsYkUOx8b-4" value="" style="shape=image;imageAspect=0;aspect=fixed;verticalLabelPosition=bottom;verticalAlign=top;image=https://upload.wikimedia.org/wikipedia/commons/thumb/8/8a/Fastly_logo.svg/1200px-Fastly_logo.svg.png;" vertex="1" parent="VL3d3sPW6T1VsYkUOx8b-1">
          <mxGeometry x="559.9999999999999" y="50" width="219.29" height="88.13" as="geometry" />
        </mxCell>
        <mxCell id="VL3d3sPW6T1VsYkUOx8b-8" value="CDN POP&lt;br&gt;Madagascar" style="shape=image;html=1;verticalAlign=top;verticalLabelPosition=bottom;labelBackgroundColor=#ffffff;imageAspect=0;aspect=fixed;image=https://cdn1.iconfinder.com/data/icons/ensign-11/512/158_Ensign_Flag_Nation_madagascar-128.png;fontFamily=Helvetica;fontSize=12;fontColor=#000000;align=center;strokeColor=#000000;fillColor=#ffffff;" vertex="1" parent="VL3d3sPW6T1VsYkUOx8b-1">
          <mxGeometry x="510" y="310" width="130" height="130" as="geometry" />
        </mxCell>
        <mxCell id="VL3d3sPW6T1VsYkUOx8b-9" value="Request 4&amp;nbsp;&lt;br&gt;CMS from Indonesia&lt;br&gt;" style="aspect=fixed;pointerEvents=1;shadow=0;dashed=0;html=1;strokeColor=none;labelPosition=center;verticalLabelPosition=top;verticalAlign=bottom;align=center;fillColor=#00188D;shape=mxgraph.azure.computer" vertex="1" parent="VL3d3sPW6T1VsYkUOx8b-1">
          <mxGeometry x="50" y="78.13" width="111.11" height="100" as="geometry" />
        </mxCell>
        <mxCell id="VL3d3sPW6T1VsYkUOx8b-10" value="Fourth Client&lt;br&gt;request Podcast Show 1&lt;br&gt;in Indonesia&lt;br&gt;" style="endArrow=classic;html=1;exitX=1.008;exitY=0.119;exitDx=0;exitDy=0;exitPerimeter=0;fillColor=#d5e8d4;strokeColor=#82b366;shape=flexArrow;" edge="1" parent="VL3d3sPW6T1VsYkUOx8b-1" source="VL3d3sPW6T1VsYkUOx8b-9" target="VL3d3sPW6T1VsYkUOx8b-4">
          <mxGeometry x="0.0061" y="-3" width="50" height="50" relative="1" as="geometry">
            <mxPoint x="800" y="-15" as="sourcePoint" />
            <mxPoint x="850" y="-65" as="targetPoint" />
            <mxPoint as="offset" />
          </mxGeometry>
        </mxCell>
        <mxCell id="VL3d3sPW6T1VsYkUOx8b-11" value="The Client is served&lt;br&gt;Show 1 from the&amp;nbsp;&lt;br&gt;Madagascar CDN POP" style="shape=flexArrow;endArrow=classic;html=1;entryX=0.999;entryY=0.739;entryDx=0;entryDy=0;entryPerimeter=0;fillColor=#d5e8d4;strokeColor=#82b366;" edge="1" parent="VL3d3sPW6T1VsYkUOx8b-1" source="VL3d3sPW6T1VsYkUOx8b-8" target="VL3d3sPW6T1VsYkUOx8b-9">
          <mxGeometry width="50" height="50" relative="1" as="geometry">
            <mxPoint x="758.34" y="350" as="sourcePoint" />
            <mxPoint x="808.34" y="300" as="targetPoint" />
            <Array as="points">
              <mxPoint x="360" y="280" />
            </Array>
          </mxGeometry>
        </mxCell>
        <mxCell id="VL3d3sPW6T1VsYkUOx8b-15" value="" style="shape=image;html=1;verticalAlign=top;verticalLabelPosition=bottom;labelBackgroundColor=#ffffff;imageAspect=0;aspect=fixed;image=https://cdn3.iconfinder.com/data/icons/142-mini-country-flags-16x16px/32/flag-indonesia2x.png" vertex="1" parent="VL3d3sPW6T1VsYkUOx8b-1">
          <mxGeometry x="333" y="120" width="92" height="92" as="geometry" />
        </mxCell>
      </root>
    </mxGraphModel>
  </diagram>
  <diagram id="GSTwafRIzhI1wYsjy9W3" name="Page-17">
    <mxGraphModel dx="1186" dy="741" grid="1" gridSize="10" guides="1" tooltips="1" connect="1" arrows="1" fold="1" page="1" pageScale="1" pageWidth="850" pageHeight="1100" math="0" shadow="0">
      <root>
        <mxCell id="HVCHwQ_u3top9TQQTNEI-0" />
        <mxCell id="HVCHwQ_u3top9TQQTNEI-1" parent="HVCHwQ_u3top9TQQTNEI-0" />
        <mxCell id="HVCHwQ_u3top9TQQTNEI-2" style="edgeStyle=orthogonalEdgeStyle;shape=flexArrow;rounded=0;orthogonalLoop=1;jettySize=auto;html=1;fillColor=#d5e8d4;strokeColor=#82b366;" edge="1" parent="HVCHwQ_u3top9TQQTNEI-1" source="HVCHwQ_u3top9TQQTNEI-4" target="HVCHwQ_u3top9TQQTNEI-8">
          <mxGeometry relative="1" as="geometry" />
        </mxCell>
        <mxCell id="HVCHwQ_u3top9TQQTNEI-3" value="Fourth Request is&lt;br&gt;routed to the same POP" style="edgeLabel;html=1;align=center;verticalAlign=middle;resizable=0;points=[];" vertex="1" connectable="0" parent="HVCHwQ_u3top9TQQTNEI-2">
          <mxGeometry x="-0.1697" y="2" relative="1" as="geometry">
            <mxPoint as="offset" />
          </mxGeometry>
        </mxCell>
        <mxCell id="HVCHwQ_u3top9TQQTNEI-4" value="" style="shape=image;imageAspect=0;aspect=fixed;verticalLabelPosition=bottom;verticalAlign=top;image=https://upload.wikimedia.org/wikipedia/commons/thumb/8/8a/Fastly_logo.svg/1200px-Fastly_logo.svg.png;" vertex="1" parent="HVCHwQ_u3top9TQQTNEI-1">
          <mxGeometry x="559.9999999999999" y="50" width="219.29" height="88.13" as="geometry" />
        </mxCell>
        <mxCell id="HVCHwQ_u3top9TQQTNEI-5" value="" style="shape=image;imageAspect=0;aspect=fixed;verticalLabelPosition=bottom;verticalAlign=top;image=https://in.thewardro.be/uploads/-/system/project/avatar/1127/cute-happy-funny-studio-microphone-hold-podcast-sign-cartoon-character-illustration-icon-design-isolated_92289-1106.jpeg?width=64;" vertex="1" parent="HVCHwQ_u3top9TQQTNEI-1">
          <mxGeometry x="300" y="360" width="136.5" height="136.5" as="geometry" />
        </mxCell>
        <mxCell id="HVCHwQ_u3top9TQQTNEI-6" value="" style="shape=image;imageAspect=0;aspect=fixed;verticalLabelPosition=bottom;verticalAlign=top;image=https://www.zdnet.com/a/hub/i/r/2018/04/19/092cbf81-acac-4f3a-91a1-5a26abc1721f/thumbnail/770x578/5d78c50199e6a9242367b37892be8057/postgresql-logo.png;" vertex="1" parent="HVCHwQ_u3top9TQQTNEI-1">
          <mxGeometry x="19.999999999999943" y="560" width="146.67" height="110" as="geometry" />
        </mxCell>
        <mxCell id="HVCHwQ_u3top9TQQTNEI-7" value="" style="shape=image;imageAspect=0;aspect=fixed;verticalLabelPosition=bottom;verticalAlign=top;image=https://static.javatpoint.com/tutorial/memcached/images/memcached-tutorial.png;" vertex="1" parent="HVCHwQ_u3top9TQQTNEI-1">
          <mxGeometry x="654.29" y="540" width="125" height="125" as="geometry" />
        </mxCell>
        <mxCell id="HVCHwQ_u3top9TQQTNEI-18" style="edgeStyle=orthogonalEdgeStyle;rounded=0;orthogonalLoop=1;jettySize=auto;html=1;startArrow=none;startFill=0;endArrow=classic;endFill=1;fillColor=#d5e8d4;strokeColor=#82b366;shape=flexArrow;" edge="1" parent="HVCHwQ_u3top9TQQTNEI-1" source="HVCHwQ_u3top9TQQTNEI-8" target="HVCHwQ_u3top9TQQTNEI-5">
          <mxGeometry relative="1" as="geometry" />
        </mxCell>
        <mxCell id="HVCHwQ_u3top9TQQTNEI-8" value="CDN POP&lt;br&gt;Madagascar" style="shape=image;html=1;verticalAlign=top;verticalLabelPosition=bottom;labelBackgroundColor=#ffffff;imageAspect=0;aspect=fixed;image=https://cdn1.iconfinder.com/data/icons/ensign-11/512/158_Ensign_Flag_Nation_madagascar-128.png;fontFamily=Helvetica;fontSize=12;fontColor=#000000;align=center;strokeColor=#000000;fillColor=#ffffff;" vertex="1" parent="HVCHwQ_u3top9TQQTNEI-1">
          <mxGeometry x="510" y="310" width="130" height="130" as="geometry" />
        </mxCell>
        <mxCell id="HVCHwQ_u3top9TQQTNEI-9" value="Request 4&amp;nbsp;&lt;br&gt;CMS from Indonesia&lt;br&gt;" style="aspect=fixed;pointerEvents=1;shadow=0;dashed=0;html=1;strokeColor=none;labelPosition=center;verticalLabelPosition=top;verticalAlign=bottom;align=center;fillColor=#00188D;shape=mxgraph.azure.computer" vertex="1" parent="HVCHwQ_u3top9TQQTNEI-1">
          <mxGeometry x="50" y="78.13" width="111.11" height="100" as="geometry" />
        </mxCell>
        <mxCell id="HVCHwQ_u3top9TQQTNEI-12" value="" style="shape=flexArrow;endArrow=classic;html=1;fillColor=#b0e3e6;strokeColor=#0e8088;entryX=0;entryY=0.5;entryDx=0;entryDy=0;" edge="1" parent="HVCHwQ_u3top9TQQTNEI-1" source="HVCHwQ_u3top9TQQTNEI-9" target="HVCHwQ_u3top9TQQTNEI-4">
          <mxGeometry width="50" height="50" relative="1" as="geometry">
            <mxPoint x="117.75" y="200" as="sourcePoint" />
            <mxPoint x="117.75" y="602" as="targetPoint" />
            <Array as="points" />
          </mxGeometry>
        </mxCell>
        <mxCell id="HVCHwQ_u3top9TQQTNEI-13" value="The API updates Show 1 in the Database" style="shape=flexArrow;endArrow=classic;html=1;entryX=0.989;entryY=0.127;entryDx=0;entryDy=0;fillColor=#b0e3e6;strokeColor=#0e8088;entryPerimeter=0;" edge="1" parent="HVCHwQ_u3top9TQQTNEI-1" source="HVCHwQ_u3top9TQQTNEI-5" target="HVCHwQ_u3top9TQQTNEI-6">
          <mxGeometry width="50" height="50" relative="1" as="geometry">
            <mxPoint x="208" y="660" as="sourcePoint" />
            <mxPoint x="610" y="620" as="targetPoint" />
          </mxGeometry>
        </mxCell>
        <mxCell id="HVCHwQ_u3top9TQQTNEI-14" value="The API invalidates the cache for Show 1" style="shape=flexArrow;endArrow=classic;html=1;exitX=0.897;exitY=0.989;exitDx=0;exitDy=0;fillColor=#b0e3e6;strokeColor=#0e8088;exitPerimeter=0;" edge="1" parent="HVCHwQ_u3top9TQQTNEI-1" source="HVCHwQ_u3top9TQQTNEI-5" target="HVCHwQ_u3top9TQQTNEI-7">
          <mxGeometry width="50" height="50" relative="1" as="geometry">
            <mxPoint x="560" y="840" as="sourcePoint" />
            <mxPoint x="420" y="1040" as="targetPoint" />
            <Array as="points" />
          </mxGeometry>
        </mxCell>
        <mxCell id="HVCHwQ_u3top9TQQTNEI-15" value="" style="shape=image;html=1;verticalAlign=top;verticalLabelPosition=bottom;labelBackgroundColor=#ffffff;imageAspect=0;aspect=fixed;image=https://cdn3.iconfinder.com/data/icons/142-mini-country-flags-16x16px/32/flag-indonesia2x.png" vertex="1" parent="HVCHwQ_u3top9TQQTNEI-1">
          <mxGeometry x="300" y="150" width="92" height="92" as="geometry" />
        </mxCell>
      </root>
    </mxGraphModel>
  </diagram>
  <diagram id="S3Q8dI9TUPN7ZC0Qya2R" name="Page-18">
    <mxGraphModel dx="1186" dy="741" grid="1" gridSize="10" guides="1" tooltips="1" connect="1" arrows="1" fold="1" page="1" pageScale="1" pageWidth="850" pageHeight="1100" math="0" shadow="0">
      <root>
        <mxCell id="ejXV9XevIOgDf9-aNMME-0" />
        <mxCell id="ejXV9XevIOgDf9-aNMME-1" parent="ejXV9XevIOgDf9-aNMME-0" />
        <mxCell id="tDvV0jzNv5FRACc-hMNc-13" style="edgeStyle=orthogonalEdgeStyle;shape=flexArrow;rounded=0;orthogonalLoop=1;jettySize=auto;html=1;fillColor=#d5e8d4;strokeColor=#82b366;" edge="1" parent="ejXV9XevIOgDf9-aNMME-1" source="tDvV0jzNv5FRACc-hMNc-15" target="tDvV0jzNv5FRACc-hMNc-20">
          <mxGeometry relative="1" as="geometry" />
        </mxCell>
        <mxCell id="tDvV0jzNv5FRACc-hMNc-15" value="" style="shape=image;imageAspect=0;aspect=fixed;verticalLabelPosition=bottom;verticalAlign=top;image=https://upload.wikimedia.org/wikipedia/commons/thumb/8/8a/Fastly_logo.svg/1200px-Fastly_logo.svg.png;" vertex="1" parent="ejXV9XevIOgDf9-aNMME-1">
          <mxGeometry x="569.9999999999999" y="60" width="219.29" height="88.13" as="geometry" />
        </mxCell>
        <mxCell id="tDvV0jzNv5FRACc-hMNc-16" value="" style="shape=image;imageAspect=0;aspect=fixed;verticalLabelPosition=bottom;verticalAlign=top;image=https://in.thewardro.be/uploads/-/system/project/avatar/1127/cute-happy-funny-studio-microphone-hold-podcast-sign-cartoon-character-illustration-icon-design-isolated_92289-1106.jpeg?width=64;" vertex="1" parent="ejXV9XevIOgDf9-aNMME-1">
          <mxGeometry x="120" y="316.75" width="136.5" height="136.5" as="geometry" />
        </mxCell>
        <mxCell id="tDvV0jzNv5FRACc-hMNc-17" value="" style="shape=image;imageAspect=0;aspect=fixed;verticalLabelPosition=bottom;verticalAlign=top;image=https://www.zdnet.com/a/hub/i/r/2018/04/19/092cbf81-acac-4f3a-91a1-5a26abc1721f/thumbnail/770x578/5d78c50199e6a9242367b37892be8057/postgresql-logo.png;" vertex="1" parent="ejXV9XevIOgDf9-aNMME-1">
          <mxGeometry x="29.999999999999943" y="570" width="146.67" height="110" as="geometry" />
        </mxCell>
        <mxCell id="tDvV0jzNv5FRACc-hMNc-18" value="" style="shape=image;imageAspect=0;aspect=fixed;verticalLabelPosition=bottom;verticalAlign=top;image=https://static.javatpoint.com/tutorial/memcached/images/memcached-tutorial.png;" vertex="1" parent="ejXV9XevIOgDf9-aNMME-1">
          <mxGeometry x="470" y="610" width="125" height="125" as="geometry" />
        </mxCell>
        <mxCell id="tDvV0jzNv5FRACc-hMNc-19" style="edgeStyle=orthogonalEdgeStyle;rounded=0;orthogonalLoop=1;jettySize=auto;html=1;startArrow=block;startFill=0;endArrow=none;endFill=0;fillColor=#d5e8d4;strokeColor=#82b366;shape=flexArrow;exitX=0;exitY=0.9;exitDx=0;exitDy=0;exitPerimeter=0;" edge="1" parent="ejXV9XevIOgDf9-aNMME-1" source="tDvV0jzNv5FRACc-hMNc-20" target="tDvV0jzNv5FRACc-hMNc-16">
          <mxGeometry relative="1" as="geometry" />
        </mxCell>
        <mxCell id="tDvV0jzNv5FRACc-hMNc-29" style="edgeStyle=orthogonalEdgeStyle;shape=flexArrow;rounded=0;orthogonalLoop=1;jettySize=auto;html=1;startArrow=none;startFill=0;endArrow=block;endFill=0;fillColor=#dae8fc;strokeColor=#6c8ebf;" edge="1" parent="ejXV9XevIOgDf9-aNMME-1" source="tDvV0jzNv5FRACc-hMNc-20">
          <mxGeometry relative="1" as="geometry">
            <mxPoint x="130" y="190" as="targetPoint" />
            <Array as="points">
              <mxPoint x="610" y="415" />
              <mxPoint x="610" y="300" />
              <mxPoint x="130" y="300" />
            </Array>
          </mxGeometry>
        </mxCell>
        <mxCell id="tDvV0jzNv5FRACc-hMNc-30" value="The Response Status is 200 and other &lt;br&gt;clients will get cached response until the TTL expires." style="edgeLabel;html=1;align=center;verticalAlign=middle;resizable=0;points=[];" vertex="1" connectable="0" parent="tDvV0jzNv5FRACc-hMNc-29">
          <mxGeometry x="0.2889" y="1" relative="1" as="geometry">
            <mxPoint as="offset" />
          </mxGeometry>
        </mxCell>
        <mxCell id="tDvV0jzNv5FRACc-hMNc-20" value="CDN POP&lt;br&gt;Madagascar" style="shape=image;html=1;verticalAlign=top;verticalLabelPosition=bottom;labelBackgroundColor=#ffffff;imageAspect=0;aspect=fixed;image=https://cdn1.iconfinder.com/data/icons/ensign-11/512/158_Ensign_Flag_Nation_madagascar-128.png;fontFamily=Helvetica;fontSize=12;fontColor=#000000;align=center;strokeColor=#000000;fillColor=#ffffff;" vertex="1" parent="ejXV9XevIOgDf9-aNMME-1">
          <mxGeometry x="670" y="350" width="130" height="130" as="geometry" />
        </mxCell>
        <mxCell id="tDvV0jzNv5FRACc-hMNc-21" value="Request 4&amp;nbsp;&lt;br&gt;CMS from Indonesia&lt;br&gt;" style="aspect=fixed;pointerEvents=1;shadow=0;dashed=0;html=1;strokeColor=none;labelPosition=center;verticalLabelPosition=top;verticalAlign=bottom;align=center;fillColor=#00188D;shape=mxgraph.azure.computer" vertex="1" parent="ejXV9XevIOgDf9-aNMME-1">
          <mxGeometry x="60" y="88.13" width="111.11" height="100" as="geometry" />
        </mxCell>
        <mxCell id="tDvV0jzNv5FRACc-hMNc-22" value="" style="shape=flexArrow;endArrow=classic;html=1;fillColor=#b0e3e6;strokeColor=#0e8088;entryX=0;entryY=0.5;entryDx=0;entryDy=0;" edge="1" parent="ejXV9XevIOgDf9-aNMME-1" source="tDvV0jzNv5FRACc-hMNc-21" target="tDvV0jzNv5FRACc-hMNc-15">
          <mxGeometry width="50" height="50" relative="1" as="geometry">
            <mxPoint x="127.75" y="210" as="sourcePoint" />
            <mxPoint x="127.75" y="612" as="targetPoint" />
            <Array as="points" />
          </mxGeometry>
        </mxCell>
        <mxCell id="tDvV0jzNv5FRACc-hMNc-23" value="" style="shape=flexArrow;endArrow=classic;html=1;entryX=0.989;entryY=0.127;entryDx=0;entryDy=0;fillColor=#b0e3e6;strokeColor=#0e8088;entryPerimeter=0;" edge="1" parent="ejXV9XevIOgDf9-aNMME-1" source="tDvV0jzNv5FRACc-hMNc-16" target="tDvV0jzNv5FRACc-hMNc-17">
          <mxGeometry width="50" height="50" relative="1" as="geometry">
            <mxPoint x="218" y="670" as="sourcePoint" />
            <mxPoint x="620" y="630" as="targetPoint" />
          </mxGeometry>
        </mxCell>
        <mxCell id="tDvV0jzNv5FRACc-hMNc-24" value="" style="shape=flexArrow;endArrow=classic;html=1;exitX=0.897;exitY=0.989;exitDx=0;exitDy=0;fillColor=#b0e3e6;strokeColor=#0e8088;exitPerimeter=0;" edge="1" parent="ejXV9XevIOgDf9-aNMME-1" source="tDvV0jzNv5FRACc-hMNc-16" target="tDvV0jzNv5FRACc-hMNc-18">
          <mxGeometry width="50" height="50" relative="1" as="geometry">
            <mxPoint x="570" y="850" as="sourcePoint" />
            <mxPoint x="430" y="1050" as="targetPoint" />
            <Array as="points" />
          </mxGeometry>
        </mxCell>
        <mxCell id="tDvV0jzNv5FRACc-hMNc-25" value="" style="shape=image;html=1;verticalAlign=top;verticalLabelPosition=bottom;labelBackgroundColor=#ffffff;imageAspect=0;aspect=fixed;image=https://cdn3.iconfinder.com/data/icons/142-mini-country-flags-16x16px/32/flag-indonesia2x.png" vertex="1" parent="ejXV9XevIOgDf9-aNMME-1">
          <mxGeometry x="310" y="160" width="92" height="92" as="geometry" />
        </mxCell>
      </root>
    </mxGraphModel>
  </diagram>
  <diagram id="_b1hdSHuFZB-C-Tvi6tF" name="Page-19">
    <mxGraphModel dx="1186" dy="1841" grid="1" gridSize="10" guides="1" tooltips="1" connect="1" arrows="1" fold="1" page="1" pageScale="1" pageWidth="850" pageHeight="1100" math="0" shadow="0">
      <root>
        <mxCell id="tyfbonSAUgI32mM68ieu-0" />
        <mxCell id="tyfbonSAUgI32mM68ieu-1" parent="tyfbonSAUgI32mM68ieu-0" />
        <mxCell id="tyfbonSAUgI32mM68ieu-2" value="Request 6&lt;br&gt;Oklahoma" style="image;html=1;image=img/lib/clip_art/telecommunication/iPhone_128x128.png;labelPosition=center;verticalLabelPosition=top;align=center;verticalAlign=bottom;" vertex="1" parent="tyfbonSAUgI32mM68ieu-1">
          <mxGeometry x="40" y="-1040" width="80" height="80" as="geometry" />
        </mxCell>
        <mxCell id="tyfbonSAUgI32mM68ieu-3" value="" style="shape=image;imageAspect=0;aspect=fixed;verticalLabelPosition=bottom;verticalAlign=top;image=https://upload.wikimedia.org/wikipedia/commons/thumb/8/8a/Fastly_logo.svg/1200px-Fastly_logo.svg.png;" vertex="1" parent="tyfbonSAUgI32mM68ieu-1">
          <mxGeometry x="579.9999999999999" y="-1040" width="219.29" height="88.13" as="geometry" />
        </mxCell>
        <mxCell id="tyfbonSAUgI32mM68ieu-4" value="CDN POP&lt;br&gt;TEXAS" style="shape=image;html=1;verticalAlign=top;verticalLabelPosition=bottom;labelBackgroundColor=#ffffff;imageAspect=0;aspect=fixed;image=https://cdn0.iconfinder.com/data/icons/customicondesign-state-png/128/Texas-Flag.png;fontFamily=Helvetica;fontSize=12;fontColor=#000000;align=center;strokeColor=#000000;fillColor=#ffffff;" vertex="1" parent="tyfbonSAUgI32mM68ieu-1">
          <mxGeometry x="340" y="-820" width="80" height="80" as="geometry" />
        </mxCell>
        <mxCell id="tyfbonSAUgI32mM68ieu-5" value="Fastly Routes the request&lt;br&gt;&amp;nbsp;to the same CDN POP&lt;br&gt;&amp;nbsp;to see if it has a fresh&lt;br&gt;&amp;nbsp;version of Show 1" style="endArrow=classic;html=1;entryX=1;entryY=0;entryDx=0;entryDy=0;exitX=0;exitY=1;exitDx=0;exitDy=0;fillColor=#f8cecc;strokeColor=#b85450;shape=flexArrow;" edge="1" parent="tyfbonSAUgI32mM68ieu-1" source="tyfbonSAUgI32mM68ieu-3" target="tyfbonSAUgI32mM68ieu-4">
          <mxGeometry width="50" height="50" relative="1" as="geometry">
            <mxPoint x="540" y="550" as="sourcePoint" />
            <mxPoint x="590" y="500" as="targetPoint" />
          </mxGeometry>
        </mxCell>
        <mxCell id="tyfbonSAUgI32mM68ieu-6" value="The CDN has no newer version&lt;br&gt;and returns status 304&amp;nbsp;&lt;br&gt;The client uses its cached version&lt;br&gt;since the TTL has not expired." style="shape=flexArrow;endArrow=classic;html=1;exitX=-0.012;exitY=0.338;exitDx=0;exitDy=0;entryX=0.888;entryY=1.013;entryDx=0;entryDy=0;fillColor=#f8cecc;strokeColor=#b85450;exitPerimeter=0;entryPerimeter=0;" edge="1" parent="tyfbonSAUgI32mM68ieu-1" source="tyfbonSAUgI32mM68ieu-4" target="tyfbonSAUgI32mM68ieu-2">
          <mxGeometry x="0.0459" width="50" height="50" relative="1" as="geometry">
            <mxPoint x="550" y="460" as="sourcePoint" />
            <mxPoint x="70" y="120" as="targetPoint" />
            <Array as="points" />
            <mxPoint as="offset" />
          </mxGeometry>
        </mxCell>
        <mxCell id="tyfbonSAUgI32mM68ieu-7" value="First Client Requests Podcast Show 1 again in Oklahoma, &lt;br&gt;this time the client has an if-modified-since in its request header" style="endArrow=classic;html=1;entryX=0;entryY=0;entryDx=0;entryDy=0;exitX=1.013;exitY=0.125;exitDx=0;exitDy=0;fillColor=#f8cecc;strokeColor=#b85450;shape=flexArrow;exitPerimeter=0;" edge="1" parent="tyfbonSAUgI32mM68ieu-1" source="tyfbonSAUgI32mM68ieu-2" target="tyfbonSAUgI32mM68ieu-3">
          <mxGeometry width="50" height="50" relative="1" as="geometry">
            <mxPoint x="550" y="330" as="sourcePoint" />
            <mxPoint x="600" y="280" as="targetPoint" />
          </mxGeometry>
        </mxCell>
        <mxCell id="tyfbonSAUgI32mM68ieu-8" value="" style="shape=image;html=1;verticalAlign=top;verticalLabelPosition=bottom;labelBackgroundColor=#ffffff;imageAspect=0;aspect=fixed;image=https://cdn0.iconfinder.com/data/icons/customicondesign-state-png/128/Oklahoma-Flag.png" vertex="1" parent="tyfbonSAUgI32mM68ieu-1">
          <mxGeometry x="297" y="-1020" width="90" height="90" as="geometry" />
        </mxCell>
      </root>
    </mxGraphModel>
  </diagram>
</mxfile>
